<?xml version="1.0" encoding="UTF-8"?>
<svg id="Layer_1" data-name="Layer 1" xmlns="http://www.w3.org/2000/svg" width="1440" height="1024" xmlns:xlink="http://www.w3.org/1999/xlink" viewBox="0 0 1440 1024">
  <defs>
    <style>
      .cls-1, .cls-2, .cls-3 {
        fill: none;
      }

      .cls-4 {
        clip-path: url(#clippath);
      }

      .cls-2 {
        stroke-linecap: square;
      }

      .cls-2, .cls-3 {
        stroke: #e6332a;
        stroke-miterlimit: 10;
        stroke-width: 55px;
      }

      .cls-5 {
        fill: #e6332a;
      }

      .cls-6 {
        fill: #fff;
      }

      .cls-7 {
        fill: #f39200;
      }

      .cls-8 {
        fill: #04ff00;
      }
    </style>
    <clipPath id="clippath">
      <rect class="cls-1" width="1440" height="1024"/>
    </clipPath>
  </defs>
  <g class="cls-4">
    <g>
      <rect width="1440" height="1024"/>
      <path class="cls-2" d="M190,245v122.12c0,71.16,57.77,128.88,129,128.88s129-57.72,129-128.88v-122.12"/>
      <path class="cls-2" d="M930,245v122.12c0,71.16,57.77,128.88,129,128.88s129-57.72,129-128.88v-122.12"/>
      <path class="cls-3" d="M448,375v248"/>
      <path class="cls-3" d="M1188,375v248"/>
      <path class="cls-3" d="M689,536c80.36,0,145.5-65.14,145.5-145.5s-65.14-145.5-145.5-145.5-145.5,65.14-145.5,145.5,65.14,145.5,145.5,145.5Z"/>
      <path class="cls-6" d="M554.49,597.8v17.32c0,3.79-1.06,6.7-3.17,8.71-2.11,2.04-5.03,3.06-8.75,3.06-2.14,0-4.09-.3-5.87-.9-1.78-.58-3.29-1.4-4.54-2.48l2.27-4.32c2.28,1.85,4.94,2.77,7.99,2.77,2.11,0,3.67-.53,4.68-1.58,1.03-1.08,1.55-2.74,1.55-4.97v-1.55c-1.68,2.06-4.06,3.1-7.13,3.1s-5.65-.9-7.38-2.7c-1.7-1.82-2.56-4.44-2.56-7.85v-8.6h5.83v8.24c0,1.97,.47,3.46,1.4,4.46s2.26,1.51,3.96,1.51c1.8,0,3.23-.53,4.28-1.58s1.58-2.65,1.58-4.79v-7.85h5.83Zm24.74,5.83v19.37h-5.62v-14.76h-8.06v14.76h-5.58v-19.37h19.26Zm14.6,19.66c-2.06,0-3.92-.42-5.58-1.26-1.63-.86-2.92-2.05-3.85-3.56-.91-1.51-1.37-3.23-1.37-5.15s.46-3.64,1.37-5.15c.94-1.51,2.22-2.69,3.85-3.53,1.66-.86,3.52-1.3,5.58-1.3s3.82,.43,5.33,1.3c1.54,.84,2.65,2.05,3.35,3.64l-4.36,2.34c-1.01-1.78-2.46-2.66-4.36-2.66-1.46,0-2.68,.48-3.64,1.44-.96,.96-1.44,2.27-1.44,3.92s.48,2.96,1.44,3.92c.96,.96,2.17,1.44,3.64,1.44,1.92,0,3.37-.89,4.36-2.66l4.36,2.38c-.7,1.54-1.81,2.74-3.35,3.6-1.51,.86-3.29,1.3-5.33,1.3Zm11.26-25.49h6.7l-1.12,16.45h-4.46l-1.12-16.45Zm3.35,25.49c-.98,0-1.81-.31-2.48-.94-.65-.65-.97-1.43-.97-2.34s.32-1.67,.97-2.27c.65-.62,1.48-.94,2.48-.94s1.84,.31,2.48,.94c.65,.6,.97,1.36,.97,2.27s-.34,1.69-1.01,2.34c-.65,.62-1.46,.94-2.45,.94Zm10.11,0c-.98,0-1.81-.34-2.48-1.01-.67-.67-1.01-1.51-1.01-2.52s.34-1.86,1.01-2.48c.67-.65,1.5-.97,2.48-.97s1.81,.32,2.48,.97c.67,.62,1.01,1.45,1.01,2.48s-.34,1.85-1.01,2.52c-.67,.67-1.5,1.01-2.48,1.01Zm9.42,0c-.98,0-1.81-.34-2.48-1.01-.67-.67-1.01-1.51-1.01-2.52s.34-1.86,1.01-2.48c.67-.65,1.5-.97,2.48-.97s1.81,.32,2.48,.97c.67,.62,1.01,1.45,1.01,2.48s-.34,1.85-1.01,2.52c-.67,.67-1.5,1.01-2.48,1.01Zm29.95,.14c-2.57,0-4.9-.55-6.98-1.66-2.06-1.13-3.7-2.68-4.9-4.64-1.18-1.99-1.76-4.24-1.76-6.73s.59-4.73,1.76-6.7c1.2-1.99,2.83-3.54,4.9-4.64,2.09-1.13,4.43-1.69,7.02-1.69,2.18,0,4.15,.38,5.9,1.15,1.78,.77,3.26,1.87,4.46,3.31l-3.74,3.46c-1.7-1.97-3.82-2.95-6.34-2.95-1.56,0-2.95,.35-4.18,1.04-1.22,.67-2.18,1.62-2.88,2.84-.67,1.22-1.01,2.62-1.01,4.18s.34,2.95,1.01,4.18c.7,1.22,1.66,2.18,2.88,2.88,1.22,.67,2.62,1.01,4.18,1.01,2.52,0,4.63-1,6.34-2.99l3.74,3.46c-1.2,1.46-2.69,2.58-4.46,3.35-1.78,.77-3.76,1.15-5.94,1.15Zm38.54-20.09c2.42,0,4.34,.72,5.76,2.16,1.44,1.42,2.16,3.55,2.16,6.41v11.09h-5.62v-10.22c0-1.54-.32-2.68-.97-3.42-.62-.77-1.52-1.15-2.7-1.15-1.32,0-2.36,.43-3.13,1.3-.77,.84-1.15,2.1-1.15,3.78v9.72h-5.62v-10.22c0-3.05-1.22-4.57-3.67-4.57-1.3,0-2.33,.43-3.1,1.3-.77,.84-1.15,2.1-1.15,3.78v9.72h-5.62v-19.37h5.36v2.23c.72-.82,1.6-1.44,2.63-1.87,1.06-.43,2.21-.65,3.46-.65,1.37,0,2.6,.28,3.71,.83,1.1,.53,1.99,1.31,2.66,2.34,.79-1.01,1.79-1.79,2.99-2.34,1.22-.55,2.56-.83,4-.83Zm22.75,0c2.06,0,3.86,.41,5.4,1.22s2.72,1.98,3.56,3.49c.84,1.51,1.26,3.28,1.26,5.29s-.4,3.71-1.19,5.22c-.79,1.49-1.91,2.65-3.35,3.49-1.44,.82-3.1,1.22-4.97,1.22-2.47,0-4.4-.78-5.8-2.34v9.04h-5.62v-16.6c0-1.99,.44-3.74,1.33-5.26,.89-1.51,2.14-2.69,3.74-3.53,1.61-.84,3.48-1.26,5.62-1.26Zm-.25,15.34c1.46,0,2.65-.49,3.56-1.48,.91-.98,1.37-2.27,1.37-3.85s-.46-2.9-1.37-3.89c-.91-1.01-2.1-1.51-3.56-1.51s-2.65,.49-3.56,1.48c-.89,.98-1.33,2.28-1.33,3.89s.44,2.9,1.33,3.89,2.08,1.48,3.56,1.48Zm33.98-15.05v19.37h-5.36v-2.23c-1.39,1.68-3.41,2.52-6.05,2.52-1.82,0-3.48-.41-4.97-1.22-1.46-.82-2.62-1.98-3.46-3.49-.84-1.51-1.26-3.26-1.26-5.26s.42-3.74,1.26-5.26c.84-1.51,1.99-2.68,3.46-3.49,1.49-.82,3.14-1.22,4.97-1.22,2.47,0,4.4,.78,5.8,2.34v-2.05h5.62Zm-10.44,15.05c1.42,0,2.59-.48,3.53-1.44,.94-.98,1.4-2.29,1.4-3.92s-.47-2.93-1.4-3.89c-.94-.98-2.11-1.48-3.53-1.48s-2.63,.49-3.56,1.48c-.94,.96-1.4,2.26-1.4,3.89s.47,2.94,1.4,3.92c.94,.96,2.12,1.44,3.56,1.44Zm15.75-15.05h5.58v7.56h8.42v-7.56h5.62v19.37h-5.62v-7.24h-8.42v7.24h-5.58v-19.37Zm44.11,0v19.37h-5.36v-2.27c-.72,.84-1.61,1.48-2.66,1.91-1.03,.43-2.14,.65-3.31,.65-2.54,0-4.57-.73-6.08-2.2-1.49-1.46-2.23-3.64-2.23-6.52v-10.94h5.62v10.12c0,3.12,1.31,4.68,3.92,4.68,1.37,0,2.46-.43,3.28-1.3,.82-.89,1.22-2.2,1.22-3.92v-9.58h5.62Zm27.17,14.76v8.86h-5.22v-4.25h-16.6v-19.37h5.58v14.76h7.81v-14.76h5.62v14.76h2.81Zm23.08-14.76v19.37h-5.36v-2.23c-1.39,1.68-3.41,2.52-6.05,2.52-1.82,0-3.48-.41-4.97-1.22-1.46-.82-2.62-1.98-3.46-3.49-.84-1.51-1.26-3.26-1.26-5.26s.42-3.74,1.26-5.26c.84-1.51,1.99-2.68,3.46-3.49,1.49-.82,3.14-1.22,4.97-1.22,2.47,0,4.4,.78,5.8,2.34v-2.05h5.62Zm-10.44,15.05c1.42,0,2.59-.48,3.53-1.44,.94-.98,1.4-2.29,1.4-3.92s-.47-2.93-1.4-3.89c-.94-.98-2.11-1.48-3.53-1.48s-2.63,.49-3.56,1.48c-.94,.96-1.4,2.26-1.4,3.89s.47,2.94,1.4,3.92c.94,.96,2.12,1.44,3.56,1.44Zm25.94-15.05h5.58v7.56h8.42v-7.56h5.62v19.37h-5.62v-7.24h-8.42v7.24h-5.58v-19.37Zm34.64,15.16c1.01,0,1.9-.14,2.66-.43,.79-.31,1.52-.79,2.2-1.44l2.99,3.24c-1.82,2.09-4.49,3.13-7.99,3.13-2.18,0-4.12-.42-5.8-1.26-1.68-.86-2.98-2.05-3.89-3.56-.91-1.51-1.37-3.23-1.37-5.15s.44-3.6,1.33-5.11c.91-1.54,2.15-2.72,3.71-3.56,1.58-.86,3.36-1.3,5.33-1.3,1.85,0,3.53,.4,5.04,1.19,1.51,.77,2.71,1.9,3.6,3.38,.91,1.46,1.37,3.2,1.37,5.22l-14.33,2.77c.41,.96,1.04,1.68,1.91,2.16,.89,.48,1.97,.72,3.24,.72Zm-.83-11.2c-1.42,0-2.57,.46-3.46,1.37-.89,.91-1.36,2.17-1.4,3.78l9.43-1.84c-.26-1.01-.8-1.81-1.62-2.41s-1.8-.9-2.95-.9Zm24.09-3.96h5.58v7.56h8.42v-7.56h5.62v19.37h-5.62v-7.24h-8.42v7.24h-5.58v-19.37Zm44.54,0v19.37h-5.36v-2.23c-1.39,1.68-3.41,2.52-6.05,2.52-1.82,0-3.48-.41-4.97-1.22-1.46-.82-2.62-1.98-3.46-3.49-.84-1.51-1.26-3.26-1.26-5.26s.42-3.74,1.26-5.26c.84-1.51,1.99-2.68,3.46-3.49,1.49-.82,3.14-1.22,4.97-1.22,2.47,0,4.4,.78,5.8,2.34v-2.05h5.62Zm-10.44,15.05c1.42,0,2.59-.48,3.53-1.44,.94-.98,1.4-2.29,1.4-3.92s-.47-2.93-1.4-3.89c-.94-.98-2.11-1.48-3.53-1.48s-2.63,.49-3.56,1.48c-.94,.96-1.4,2.26-1.4,3.89s.47,2.94,1.4,3.92c.94,.96,2.12,1.44,3.56,1.44Zm34.86-15.05v19.37h-5.36v-2.27c-.72,.84-1.61,1.48-2.66,1.91-1.03,.43-2.14,.65-3.31,.65-2.54,0-4.57-.73-6.08-2.2-1.49-1.46-2.23-3.64-2.23-6.52v-10.94h5.62v10.12c0,3.12,1.31,4.68,3.92,4.68,1.37,0,2.46-.43,3.28-1.3,.82-.89,1.22-2.2,1.22-3.92v-9.58h5.62Zm-9.97-2.09c-4.22,0-6.35-1.86-6.37-5.58h3.67c.02,.84,.25,1.5,.68,1.98,.46,.46,1.12,.68,1.98,.68s1.52-.23,1.98-.68c.48-.48,.72-1.14,.72-1.98h3.74c-.02,3.72-2.16,5.58-6.41,5.58Zm35.09,2.09v16.13c0,3.55-.93,6.19-2.78,7.92-1.84,1.73-4.54,2.59-8.1,2.59-1.87,0-3.64-.23-5.32-.68-1.68-.46-3.08-1.12-4.18-1.98l2.23-4.03c.82,.67,1.85,1.2,3.1,1.58,1.25,.41,2.49,.61,3.74,.61,1.95,0,3.37-.44,4.29-1.33,.93-.86,1.4-2.18,1.4-3.96v-.83c-1.46,1.61-3.5,2.41-6.12,2.41-1.78,0-3.41-.38-4.9-1.15-1.46-.79-2.62-1.9-3.49-3.31-.86-1.42-1.3-3.05-1.3-4.9s.43-3.48,1.3-4.9c.87-1.42,2.03-2.51,3.49-3.28,1.49-.79,3.12-1.19,4.9-1.19,2.81,0,4.94,.92,6.41,2.77v-2.48h5.33Zm-10.62,13.82c1.48,0,2.7-.43,3.63-1.3,.96-.89,1.44-2.04,1.44-3.46s-.48-2.56-1.44-3.42c-.93-.89-2.15-1.33-3.63-1.33s-2.72,.44-3.68,1.33c-.96,.86-1.44,2-1.44,3.42s.48,2.57,1.44,3.46c.96,.86,2.19,1.3,3.68,1.3Zm25.67,1.33c1.01,0,1.9-.14,2.67-.43,.79-.31,1.52-.79,2.19-1.44l2.99,3.24c-1.82,2.09-4.49,3.13-7.99,3.13-2.19,0-4.12-.42-5.8-1.26-1.68-.86-2.97-2.05-3.89-3.56-.91-1.51-1.36-3.23-1.36-5.15s.44-3.6,1.33-5.11c.91-1.54,2.15-2.72,3.71-3.56,1.58-.86,3.36-1.3,5.32-1.3,1.85,0,3.53,.4,5.04,1.19,1.52,.77,2.72,1.9,3.6,3.38,.92,1.46,1.37,3.2,1.37,5.22l-14.33,2.77c.41,.96,1.05,1.68,1.91,2.16,.89,.48,1.97,.72,3.24,.72Zm-.83-11.2c-1.41,0-2.56,.46-3.45,1.37-.89,.91-1.36,2.17-1.41,3.78l9.44-1.84c-.27-1.01-.81-1.81-1.62-2.41-.82-.6-1.8-.9-2.96-.9Zm13.9-3.96h5.58v7.56h8.42v-7.56h5.62v19.37h-5.62v-7.24h-8.42v7.24h-5.58v-19.37Zm44.54,0v19.37h-5.36v-2.23c-1.4,1.68-3.41,2.52-6.05,2.52-1.83,0-3.48-.41-4.97-1.22-1.46-.82-2.62-1.98-3.46-3.49-.84-1.51-1.26-3.26-1.26-5.26s.42-3.74,1.26-5.26c.84-1.51,2-2.68,3.46-3.49,1.49-.82,3.14-1.22,4.97-1.22,2.47,0,4.4,.78,5.79,2.34v-2.05h5.62Zm-10.44,15.05c1.42,0,2.59-.48,3.53-1.44,.93-.98,1.4-2.29,1.4-3.92s-.47-2.93-1.4-3.89c-.94-.98-2.11-1.48-3.53-1.48s-2.63,.49-3.56,1.48c-.94,.96-1.41,2.26-1.41,3.89s.47,2.94,1.41,3.92c.93,.96,2.12,1.44,3.56,1.44Zm17.76,4.61c-.98,0-1.81-.34-2.48-1.01-.67-.67-1.01-1.51-1.01-2.52s.34-1.86,1.01-2.48c.67-.65,1.5-.97,2.48-.97s1.82,.32,2.49,.97c.67,.62,1.01,1.45,1.01,2.48s-.34,1.85-1.01,2.52c-.67,.67-1.5,1.01-2.49,1.01Zm9.43,0c-.99,0-1.82-.34-2.49-1.01-.67-.67-1.01-1.51-1.01-2.52s.34-1.86,1.01-2.48c.67-.65,1.5-.97,2.49-.97s1.81,.32,2.48,.97c.67,.62,1.01,1.45,1.01,2.48s-.34,1.85-1.01,2.52c-.67,.67-1.5,1.01-2.48,1.01Zm9.42,0c-.99,0-1.82-.34-2.49-1.01-.67-.67-1.01-1.51-1.01-2.52s.34-1.86,1.01-2.48c.67-.65,1.5-.97,2.49-.97s1.81,.32,2.48,.97c.67,.62,1.01,1.45,1.01,2.48s-.34,1.85-1.01,2.52c-.67,.67-1.5,1.01-2.48,1.01Z"/>
      <path class="cls-7" d="M549.59,785.86c1.54,.46,2.71,1.2,3.53,2.23,.82,1.03,1.22,2.3,1.22,3.82,0,2.23-.85,3.97-2.56,5.22-1.68,1.25-4.09,1.87-7.24,1.87h-12.42v-25.2h11.74c2.93,0,5.21,.56,6.84,1.69s2.45,2.74,2.45,4.82c0,1.25-.31,2.35-.94,3.31-.62,.94-1.5,1.68-2.63,2.23Zm-11.66-1.62h5.44c1.27,0,2.23-.25,2.88-.76,.65-.53,.97-1.3,.97-2.3s-.34-1.74-1.01-2.27c-.65-.53-1.6-.79-2.84-.79h-5.44v6.12Zm6.41,10.44c2.74,0,4.1-1.08,4.1-3.24s-1.37-3.13-4.1-3.13h-6.41v6.37h6.41Zm23.84,.11c1.01,0,1.9-.14,2.66-.43,.79-.31,1.52-.79,2.2-1.44l2.99,3.24c-1.82,2.09-4.49,3.13-7.99,3.13-2.18,0-4.12-.42-5.8-1.26-1.68-.86-2.98-2.05-3.89-3.56-.91-1.51-1.37-3.23-1.37-5.15s.44-3.6,1.33-5.11c.91-1.54,2.15-2.72,3.71-3.56,1.58-.86,3.36-1.3,5.33-1.3,1.85,0,3.53,.4,5.04,1.19,1.51,.77,2.71,1.9,3.6,3.38,.91,1.46,1.37,3.2,1.37,5.22l-14.33,2.77c.41,.96,1.04,1.68,1.91,2.16,.89,.48,1.97,.72,3.24,.72Zm-.83-11.2c-1.42,0-2.57,.46-3.46,1.37-.89,.91-1.36,2.17-1.4,3.78l9.43-1.84c-.26-1.01-.8-1.81-1.62-2.41-.82-.6-1.8-.9-2.95-.9Zm23.83-4.25c2.06,0,3.86,.41,5.4,1.22s2.72,1.98,3.56,3.49c.84,1.51,1.26,3.28,1.26,5.29s-.4,3.71-1.19,5.22c-.79,1.49-1.91,2.65-3.35,3.49-1.44,.82-3.1,1.22-4.97,1.22-2.47,0-4.4-.78-5.8-2.34v9.04h-5.62v-16.6c0-1.99,.44-3.74,1.33-5.26,.89-1.51,2.14-2.69,3.74-3.53,1.61-.84,3.48-1.26,5.62-1.26Zm-.25,15.34c1.46,0,2.65-.49,3.56-1.48,.91-.98,1.37-2.27,1.37-3.85s-.46-2.9-1.37-3.89c-.91-1.01-2.1-1.51-3.56-1.51s-2.65,.49-3.56,1.48c-.89,.98-1.33,2.28-1.33,3.89s.44,2.9,1.33,3.89,2.08,1.48,3.56,1.48Zm14.43-15.05h5.58v7.56h8.42v-7.56h5.62v19.37h-5.62v-7.24h-8.42v7.24h-5.58v-19.37Zm44.4,0v16.13c0,3.55-.9,6.19-2.7,7.92-1.8,1.73-4.42,2.59-7.85,2.59-1.82,0-3.55-.23-5.18-.68-1.61-.46-2.96-1.12-4.07-1.98l2.23-4.03c.82,.67,1.81,1.2,2.99,1.58,1.18,.38,2.36,.58,3.56,.58,1.87,0,3.24-.43,4.1-1.3,.86-.86,1.3-2.18,1.3-3.96v-.65c-.72,.72-1.57,1.27-2.56,1.66-.98,.38-2.04,.58-3.17,.58-2.54,0-4.56-.72-6.05-2.16-1.49-1.46-2.23-3.65-2.23-6.55v-9.72h5.62v8.89c0,3.14,1.31,4.72,3.92,4.72,1.34,0,2.42-.43,3.24-1.3,.82-.89,1.22-2.2,1.22-3.92v-8.39h5.62Zm30.08-.29c2.42,0,4.34,.72,5.76,2.16,1.44,1.42,2.16,3.55,2.16,6.41v11.09h-5.62v-10.22c0-1.54-.32-2.68-.97-3.42-.62-.77-1.52-1.15-2.7-1.15-1.32,0-2.36,.43-3.13,1.3-.77,.84-1.15,2.1-1.15,3.78v9.72h-5.62v-10.22c0-3.05-1.22-4.57-3.67-4.57-1.3,0-2.33,.43-3.1,1.3-.77,.84-1.15,2.1-1.15,3.78v9.72h-5.62v-19.37h5.36v2.23c.72-.82,1.6-1.44,2.63-1.87,1.06-.43,2.21-.65,3.46-.65,1.37,0,2.6,.28,3.71,.83,1.1,.53,1.99,1.31,2.66,2.34,.79-1.01,1.79-1.79,2.99-2.34,1.22-.55,2.56-.83,4-.83Zm21.71,20.2c-3.07,0-5.4-.68-6.98-2.05-1.56-1.37-2.34-3.38-2.34-6.05v-11.81h5.58v6.55c.6-.43,1.37-.77,2.3-1.01,.96-.24,2.03-.36,3.2-.36,2.42,0,4.32,.6,5.69,1.8,1.37,1.2,2.05,2.95,2.05,5.26,0,2.47-.85,4.37-2.56,5.69-1.68,1.32-4,1.98-6.95,1.98Zm0-3.96c1.2,0,2.12-.32,2.77-.97,.67-.65,1.01-1.52,1.01-2.63s-.32-1.88-.97-2.48c-.62-.6-1.52-.9-2.7-.9-.86,0-1.63,.16-2.3,.47-.67,.31-1.19,.76-1.55,1.33v1.58c0,1.13,.32,2.02,.97,2.66,.67,.62,1.6,.94,2.77,.94Zm22.33,3.71c-2.06,0-3.92-.42-5.58-1.26-1.63-.86-2.92-2.05-3.85-3.56-.91-1.51-1.37-3.23-1.37-5.15s.46-3.64,1.37-5.15c.94-1.51,2.22-2.69,3.85-3.53,1.66-.86,3.52-1.3,5.58-1.3s3.82,.43,5.33,1.3c1.54,.84,2.65,2.05,3.35,3.64l-4.36,2.34c-1.01-1.78-2.46-2.66-4.36-2.66-1.46,0-2.68,.48-3.64,1.44-.96,.96-1.44,2.27-1.44,3.92s.48,2.96,1.44,3.92c.96,.96,2.17,1.44,3.64,1.44,1.92,0,3.37-.89,4.36-2.66l4.36,2.38c-.7,1.54-1.81,2.74-3.35,3.6-1.51,.86-3.29,1.3-5.33,1.3Zm28.8-19.66v19.37h-5v-5.54h-4.14l-3.67,5.54h-5.98l4.43-6.34c-1.34-.53-2.38-1.28-3.1-2.27-.7-1.01-1.04-2.22-1.04-3.64,0-2.28,.82-4.03,2.45-5.26,1.66-1.25,3.92-1.87,6.8-1.87h9.25Zm-9.14,4.57c-1.2,0-2.11,.22-2.74,.65-.6,.43-.9,1.13-.9,2.09s.29,1.67,.86,2.12c.6,.43,1.5,.65,2.7,.65h4.21v-5.51h-4.14Zm24.74-4.57h5.58v7.56h8.42v-7.56h5.62v19.37h-5.62v-7.24h-8.42v7.24h-5.58v-19.37Zm44.54,0v19.37h-5.36v-2.23c-1.39,1.68-3.41,2.52-6.05,2.52-1.82,0-3.48-.41-4.97-1.22-1.46-.82-2.62-1.98-3.46-3.49-.84-1.51-1.26-3.26-1.26-5.26s.42-3.74,1.26-5.26c.84-1.51,1.99-2.68,3.46-3.49,1.49-.82,3.14-1.22,4.97-1.22,2.47,0,4.4,.78,5.8,2.34v-2.05h5.62Zm-10.44,15.05c1.42,0,2.59-.48,3.53-1.44,.94-.98,1.4-2.29,1.4-3.92s-.47-2.93-1.4-3.89c-.94-.98-2.11-1.48-3.53-1.48s-2.63,.49-3.56,1.48c-.94,.96-1.4,2.26-1.4,3.89s.47,2.94,1.4,3.92c.94,.96,2.12,1.44,3.56,1.44Zm41.46-10.44h-9.94v14.76h-5.58v-19.37h15.52v4.61Zm20.15-4.61v19.37h-5.62v-14.76h-6.12l-.18,3.42c-.1,2.54-.34,4.66-.72,6.34-.38,1.68-1.01,3-1.87,3.96-.86,.96-2.06,1.44-3.6,1.44-.82,0-1.79-.14-2.92-.43l.29-4.61c.38,.05,.66,.07,.83,.07,.84,0,1.46-.3,1.87-.9,.43-.62,.72-1.4,.86-2.34,.14-.96,.25-2.22,.32-3.78l.29-7.78h16.56Zm24.95,0v19.37h-5.36v-2.23c-1.39,1.68-3.41,2.52-6.05,2.52-1.82,0-3.48-.41-4.97-1.22-1.46-.82-2.62-1.98-3.46-3.49-.84-1.51-1.26-3.26-1.26-5.26s.42-3.74,1.26-5.26c.84-1.51,1.99-2.68,3.46-3.49,1.49-.82,3.14-1.22,4.97-1.22,2.47,0,4.4,.78,5.8,2.34v-2.05h5.62Zm-10.44,15.05c1.42,0,2.59-.48,3.53-1.44,.94-.98,1.4-2.29,1.4-3.92s-.47-2.93-1.4-3.89c-.94-.98-2.11-1.48-3.53-1.48s-2.63,.49-3.56,1.48c-.94,.96-1.4,2.26-1.4,3.89s.47,2.94,1.4,3.92c.94,.96,2.12,1.44,3.56,1.44Zm30.54-5.8c2.28,.77,3.42,2.3,3.42,4.61,0,1.75-.66,3.11-1.98,4.07s-3.29,1.44-5.9,1.44h-10.33v-19.37h9.9c2.42,0,4.32,.44,5.69,1.33,1.37,.86,2.05,2.09,2.05,3.67,0,.96-.25,1.81-.76,2.56-.48,.72-1.18,1.28-2.09,1.69Zm-9.65-1.3h4.25c1.97,0,2.95-.7,2.95-2.09s-.98-2.05-2.95-2.05h-4.25v4.14Zm4.72,7.6c2.06,0,3.1-.71,3.1-2.12,0-.74-.24-1.28-.72-1.62-.48-.36-1.24-.54-2.27-.54h-4.82v4.28h4.72Zm12.53-15.55h5.58v7.56h8.42v-7.56h5.62v19.37h-5.62v-7.24h-8.42v7.24h-5.58v-19.37Zm44.4,0v16.13c0,3.55-.9,6.19-2.7,7.92-1.8,1.73-4.42,2.59-7.85,2.59-1.82,0-3.55-.23-5.18-.68-1.61-.46-2.96-1.12-4.07-1.98l2.23-4.03c.82,.67,1.81,1.2,2.99,1.58,1.18,.38,2.36,.58,3.56,.58,1.87,0,3.24-.43,4.1-1.3s1.3-2.18,1.3-3.96v-.65c-.72,.72-1.57,1.27-2.56,1.66-.98,.38-2.04,.58-3.17,.58-2.54,0-4.56-.72-6.05-2.16-1.49-1.46-2.23-3.65-2.23-6.55v-9.72h5.62v8.89c0,3.14,1.31,4.72,3.92,4.72,1.34,0,2.42-.43,3.24-1.3,.82-.89,1.22-2.2,1.22-3.92v-8.39h5.62Zm23.64-.29c1.97,0,3.73,.43,5.29,1.3,1.56,.84,2.78,2.02,3.67,3.53,.89,1.51,1.33,3.23,1.33,5.15s-.44,3.64-1.33,5.15c-.89,1.51-2.11,2.7-3.67,3.56-1.56,.84-3.32,1.26-5.29,1.26-1.7,0-3.26-.31-4.68-.94-1.42-.65-2.59-1.55-3.53-2.7-.94-1.18-1.56-2.52-1.87-4.03h-2.66v7.38h-5.58v-19.37h5.58v7.13h2.7c.55-2.26,1.73-4.06,3.53-5.4,1.8-1.34,3.97-2.02,6.52-2.02Zm0,15.34c1.37,0,2.5-.48,3.38-1.44,.91-.98,1.37-2.29,1.37-3.92s-.46-2.96-1.37-3.92c-.89-.96-2.02-1.44-3.38-1.44s-2.54,.48-3.46,1.44c-.89,.96-1.33,2.27-1.33,3.92s.44,2.94,1.33,3.92c.91,.96,2.06,1.44,3.46,1.44Z"/>
      <path class="cls-8" d="M184.01,783.39c-2.11-37.49,26.58-69.6,64.07-71.71,37.49-2.11,69.6,26.58,71.71,64.07l46.41,824.69-135.79,7.64-46.41-824.69Z"/>
      <path class="cls-8" d="M186.67,848.5l-12.19-216.57,12.62-25-3.98,27.14,42.65,757.93-8.49,.48"/>
      <path class="cls-8" d="M323.64,826.3l-11.86-210.76-15.3-22.78,8.04,44.92,41.51,737.53,8.49-.48"/>
      <path class="cls-8" d="M208.16,660.84c17.64-.99,31.13-16.33,30.12-34.25-1.01-17.92-16.13-31.64-33.78-30.65-17.64,.99-31.13,16.33-30.12,34.25,1.01,17.92,16.13,31.64,33.78,30.65Z"/>
      <path class="cls-8" d="M281.48,646.7c17.64-.99,31.13-16.33,30.12-34.25-1.01-17.92-16.13-31.64-33.77-30.65-17.64,.99-31.13,16.33-30.12,34.25,1.01,17.92,16.13,31.64,33.78,30.65Z"/>
      <path class="cls-6" d="M215.65,651.4c12.13-.68,21.42-10.85,20.76-22.7-.67-11.85-11.04-20.91-23.17-20.23-12.13,.68-21.42,10.85-20.76,22.7,.67,11.85,11.04,20.91,23.17,20.23Z"/>
      <path d="M214.8,636.43c3.86-.22,6.81-3.52,6.6-7.38-.22-3.86-3.52-6.81-7.38-6.6-3.86,.22-6.81,3.52-6.6,7.38,.22,3.86,3.52,6.81,7.38,6.6Z"/>
      <path class="cls-6" d="M272.82,635.16c12.13-.68,21.42-10.85,20.76-22.7-.67-11.85-11.04-20.91-23.17-20.23-12.13,.68-21.42,10.85-20.76,22.7,.67,11.85,11.04,20.91,23.17,20.23Z"/>
      <path d="M273.04,621.13c3.86-.22,6.81-3.52,6.6-7.38-.22-3.86-3.52-6.81-7.38-6.6-3.86,.22-6.81,3.52-6.59,7.38,.22,3.86,3.52,6.81,7.38,6.6Z"/>
      <path class="cls-6" d="M234.81,760.5l15.29,40.46-25.94,1.46,10.65-41.92Z"/>
      <path class="cls-6" d="M269.75,758.53l15.29,40.46-25.94,1.46,10.65-41.91Z"/>
      <circle class="cls-5" cx="656.5" cy="353.5" r="46.5"/>
    </g>
  </g>
</svg>