<?xml version="1.0" encoding="utf-8"?>
<!-- Generator: Adobe Illustrator 26.4.1, SVG Export Plug-In . SVG Version: 6.00 Build 0)  -->
<svg version="1.1" id="Layer_1" xmlns="http://www.w3.org/2000/svg" xmlns:xlink="http://www.w3.org/1999/xlink" x="0px" y="0px"
	 viewBox="0 0 142 142" style="enable-background:new 0 0 142 142;" xml:space="preserve">
<style type="text/css">
	.st0{fill:#FFFFFF;}
</style>
<g>
	<path class="st0" d="M25,0h92c13.8,0,25,11.2,25,25v92c0,13.8-11.2,25-25,25H25c-13.8,0-25-11.2-25-25V25C0,11.2,11.2,0,25,0z"/>
	<path d="M35.4,78.2c-1.5,0-2.8-0.3-3.9-0.9c-1.2-0.6-2.1-1.5-2.7-2.6c-0.6-1.1-1-2.3-1-3.7s0.3-2.6,1-3.7c0.7-1.1,1.6-2,2.7-2.6
		c1.2-0.6,2.5-0.9,3.9-0.9s2.8,0.3,3.9,0.9s2.1,1.5,2.7,2.6c0.7,1.1,1,2.3,1,3.7s-0.3,2.6-1,3.7c-0.7,1.1-1.6,1.9-2.7,2.6
		C38.2,77.9,36.9,78.2,35.4,78.2z M35.4,75.5c0.8,0,1.6-0.2,2.2-0.6c0.7-0.4,1.2-0.9,1.6-1.6c0.4-0.7,0.6-1.4,0.6-2.3
		s-0.2-1.6-0.6-2.3c-0.4-0.7-0.9-1.2-1.6-1.6c-0.7-0.4-1.4-0.6-2.2-0.6s-1.6,0.2-2.2,0.6c-0.7,0.4-1.2,0.9-1.6,1.6
		C31.2,69.4,31,70.1,31,71s0.2,1.6,0.6,2.3c0.4,0.7,0.9,1.2,1.6,1.6C33.8,75.3,34.6,75.5,35.4,75.5z M55.7,73.9h-1.6V78H51V67.2h3.1
		v4.2h1.7l2.9-4.2H62l-3.8,5.2l4,5.6h-3.7C58.6,78,55.7,73.9,55.7,73.9z M74.1,67.2V78H71v-8.2h-3.4l-0.1,1.9
		c-0.1,1.4-0.2,2.6-0.4,3.5s-0.6,1.7-1,2.2s-1.2,0.8-2,0.8c-0.5,0-1-0.1-1.6-0.2l0.2-2.6c0.2,0,0.4,0,0.5,0c0.5,0,0.8-0.2,1-0.5
		c0.2-0.3,0.4-0.8,0.5-1.3c0.1-0.5,0.1-1.2,0.2-2.1l0.2-4.3C64.9,67.2,74.1,67.2,74.1,67.2z M87.9,67.2v9c0,2-0.5,3.4-1.5,4.4
		S84,82,82.1,82c-1,0-2-0.1-2.9-0.4c-0.9-0.2-1.7-0.6-2.3-1.1l1.2-2.2c0.4,0.4,1,0.7,1.7,0.9s1.3,0.3,2,0.3c1,0,1.8-0.2,2.3-0.7
		c0.5-0.5,0.7-1.2,0.7-2.2v-0.4c-0.4,0.4-0.9,0.7-1.4,0.9c-0.6,0.2-1.1,0.3-1.8,0.3c-1.4,0-2.5-0.4-3.4-1.2c-0.8-0.8-1.2-2-1.2-3.6
		v-5.4h3.1v4.9c0,1.8,0.7,2.6,2.2,2.6c0.8,0,1.3-0.2,1.8-0.7c0.4-0.5,0.7-1.2,0.7-2.2v-4.7L87.9,67.2L87.9,67.2z M97.1,68
		c1,0,1.9,0.2,2.7,0.6c0.8,0.4,1.4,1,1.8,1.8c0.4,0.8,0.6,1.6,0.6,2.6s-0.2,1.9-0.8,2.7c-0.5,0.8-1.2,1.4-2.1,1.8
		c-0.9,0.4-1.9,0.6-3,0.6c-1.9,0-3.4-0.6-4.4-1.8c-1.1-1.2-1.6-3-1.6-5.3c0-2.2,0.5-3.9,1.4-5.2c0.9-1.3,2.4-2.1,4.3-2.5l5.1-1
		l0.4,2.7L97.1,66c-1.2,0.2-2.1,0.6-2.7,1.2c-0.6,0.6-0.9,1.3-1,2.4c0.5-0.5,1-0.9,1.7-1.2C95.6,68.1,96.3,68,97.1,68L97.1,68z
		 M96.4,75.8c0.8,0,1.4-0.3,1.9-0.8c0.5-0.5,0.7-1.2,0.7-2s-0.2-1.5-0.7-1.9c-0.5-0.5-1.1-0.7-1.9-0.7s-1.5,0.2-2,0.7
		s-0.7,1.1-0.7,1.9s0.2,1.5,0.8,2C94.9,75.6,95.6,75.8,96.4,75.8z M109.7,75.7c0.6,0,1.1-0.1,1.5-0.2c0.4-0.2,0.8-0.4,1.2-0.8
		l1.7,1.8c-1,1.2-2.5,1.7-4.4,1.7c-1.2,0-2.3-0.2-3.2-0.7c-0.9-0.5-1.7-1.1-2.2-2c-0.5-0.8-0.8-1.8-0.8-2.9s0.2-2,0.7-2.8
		c0.5-0.8,1.2-1.5,2.1-2c0.9-0.5,1.9-0.7,3-0.7c1,0,2,0.2,2.8,0.7c0.8,0.4,1.5,1.1,2,1.9c0.5,0.8,0.8,1.8,0.8,2.9l-8,1.5
		c0.2,0.5,0.6,0.9,1.1,1.2C108.4,75.5,109,75.7,109.7,75.7z M109.2,69.4c-0.8,0-1.4,0.2-1.9,0.8s-0.8,1.2-0.8,2.1l5.2-1
		c-0.2-0.6-0.4-1-0.9-1.3C110.4,69.6,109.9,69.4,109.2,69.4z"/>
</g>
</svg>
