<?xml version="1.0" encoding="utf-8"?>
<!-- Generator: Adobe Illustrator 26.4.1, SVG Export Plug-In . SVG Version: 6.00 Build 0)  -->
<svg version="1.1" id="Layer_1" xmlns="http://www.w3.org/2000/svg" xmlns:xlink="http://www.w3.org/1999/xlink" x="0px" y="0px"
	 viewBox="0 0 44.3 13" style="enable-background:new 0 0 44.3 13;" xml:space="preserve">
<style type="text/css">
	.st0{fill:#04FF00;}
	.st1{fill:#FFFFFF;}
</style>
<g>
	<path class="st0" d="M6.6,13c3.6,0,6.6-2.9,6.6-6.5S10.2,0,6.6,0S0,2.9,0,6.5S2.9,13,6.6,13z"/>
	<path class="st0" d="M22.1,13c3.6,0,6.6-2.9,6.6-6.5S25.8,0,22.1,0s-6.6,2.9-6.6,6.5S18.5,13,22.1,13z"/>
	<path class="st1" d="M22.1,10.8c2.5,0,4.4-2,4.4-4.4s-2-4.4-4.4-4.4s-4.4,2-4.4,4.4S19.6,10.8,22.1,10.8z"/>
	<path d="M22.1,8.7c1.2,0,2.2-1,2.2-2.2s-1-2.2-2.2-2.2s-2.2,1-2.2,2.2S20.9,8.7,22.1,8.7z"/>
	<path class="st1" d="M6.6,10.9c2.5,0,4.4-2,4.4-4.4S9,2.1,6.6,2.1s-4.4,2-4.4,4.4S4.1,10.9,6.6,10.9L6.6,10.9z"/>
	<path d="M6.6,8.7c1.2,0,2.2-1,2.2-2.2s-1-2.2-2.2-2.2s-2.2,1-2.2,2.2S5.3,8.7,6.6,8.7z"/>
	<path class="st0" d="M37.7,13c3.6,0,6.6-2.9,6.6-6.5S41.3,0,37.7,0s-6.6,2.9-6.6,6.5S34.1,13,37.7,13z"/>
	<path class="st1" d="M37.7,10.9c2.5,0,4.4-2,4.4-4.4s-2-4.4-4.4-4.4s-4.4,2-4.4,4.4S35.3,10.9,37.7,10.9z"/>
	<path d="M37.7,8.7c1.2,0,2.2-1,2.2-2.2s-1-2.2-2.2-2.2s-2.2,1-2.2,2.2S36.5,8.7,37.7,8.7z"/>
</g>
</svg>
