<?xml version="1.0" encoding="utf-8"?>
<!-- Generator: Adobe Illustrator 26.4.1, SVG Export Plug-In . SVG Version: 6.00 Build 0)  -->
<svg version="1.1" id="Layer_1" xmlns="http://www.w3.org/2000/svg" xmlns:xlink="http://www.w3.org/1999/xlink" x="0px" y="0px"
	 viewBox="0 0 16 16" style="enable-background:new 0 0 16 16;" xml:space="preserve">
<style type="text/css">
	.st0{fill:#E6332A;}
	.st1{fill:#FFFFFF;}
	.st2{fill:#1D1D1B;}
</style>
<path class="st0" d="M2.64,8.21c0-2.97,2.4-5.37,5.37-5.37s5.37,2.4,5.37,5.37v9.43H2.64V8.21z"/>
<path class="st0" d="M5.25,5c0,0-1.12,0.27-1.99-1.89L2.4,0.95c0,0,2.1,2.7,2.51,2.8C5.33,3.84,5.25,5,5.25,5z"/>
<path class="st0" d="M10.83,5c0,0,1.12,0.27,1.99-1.89l0.86-2.16c0,0-2.1,2.7-2.51,2.8S10.83,5,10.83,5z"/>
<path class="st1" d="M8.04,10.72c1.63,0,2.96-1.32,2.96-2.96S9.67,4.8,8.04,4.8S5.08,6.13,5.08,7.76S6.41,10.72,8.04,10.72z"/>
<path class="st2" d="M8.04,8.77c0.56,0,1.01-0.45,1.01-1.01c0-0.56-0.45-1.01-1.01-1.01c-0.56,0-1.01,0.45-1.01,1.01
	C7.03,8.32,7.48,8.77,8.04,8.77z"/>
<path class="st1" d="M10.31,12.29c-0.29,0.93-1.2,1.61-2.28,1.61c-0.6,0-1.15-0.21-1.56-0.56v0h0c-0.31-0.26-0.56-0.6-0.69-0.99
	v0.05c0,0.38,0.11,0.74,0.29,1.05l0.02,1.01l0.23-0.67c0.42,0.47,1.04,0.76,1.73,0.76s1.31-0.3,1.73-0.76L10,14.47l0.02-1.01
	c0.18-0.31,0.29-0.67,0.29-1.05C10.31,12.36,10.31,12.33,10.31,12.29L10.31,12.29z"/>
</svg>
