<?xml version="1.0" encoding="UTF-8"?>
<svg id="Layer_1" data-name="Layer 1" xmlns="http://www.w3.org/2000/svg" width="243.73" height="87.92" viewBox="0 0 243.73 87.92">
  <defs>
    <style>
      .cls-1 {
        fill: #04ff00;
        stroke: #000;
        stroke-width: 15px;
      }
    </style>
  </defs>
  <path class="cls-1" d="M22.23,42.42V8.42l86,10L236.23,8.42v62l-38,10H10.23l12-38Z"/>
  <path d="M99.76,31.22v25.2h-5.65v-3.06c-1.73,2.33-4.27,3.49-7.63,3.49-2.98,0-5.3-.94-6.98-2.81-1.66-1.9-2.48-4.58-2.48-8.06v-14.76h5.83v14.58c0,2.02,.47,3.54,1.4,4.57,.96,1.01,2.26,1.51,3.89,1.51,1.75,0,3.16-.54,4.21-1.62,1.06-1.1,1.58-2.72,1.58-4.86v-14.18h5.83Zm21.2,10.44h-9.94v14.76h-5.58v-19.37h15.52v4.61Zm12.91-4.9c2.06,0,3.86,.41,5.4,1.22,1.54,.82,2.72,1.98,3.56,3.49,.84,1.51,1.26,3.28,1.26,5.29s-.4,3.71-1.19,5.22c-.79,1.49-1.91,2.65-3.35,3.49-1.44,.82-3.1,1.22-4.97,1.22-2.47,0-4.4-.78-5.8-2.34v9.04h-5.62v-16.6c0-1.99,.44-3.74,1.33-5.26s2.14-2.69,3.74-3.53,3.48-1.26,5.62-1.26Zm-.25,15.34c1.46,0,2.65-.49,3.56-1.48,.91-.98,1.37-2.27,1.37-3.85s-.46-2.9-1.37-3.89c-.91-1.01-2.1-1.51-3.56-1.51s-2.65,.49-3.56,1.48c-.89,.98-1.33,2.28-1.33,3.89s.44,2.9,1.33,3.89c.89,.98,2.08,1.48,3.56,1.48Zm33.98-15.05v19.37h-5.36v-2.23c-1.39,1.68-3.41,2.52-6.05,2.52-1.82,0-3.48-.41-4.97-1.22-1.46-.82-2.62-1.98-3.46-3.49-.84-1.51-1.26-3.26-1.26-5.26s.42-3.74,1.26-5.26c.84-1.51,1.99-2.68,3.46-3.49,1.49-.82,3.14-1.22,4.97-1.22,2.47,0,4.4,.78,5.8,2.34v-2.05h5.62Zm-10.44,15.05c1.42,0,2.59-.48,3.53-1.44,.94-.98,1.4-2.29,1.4-3.92s-.47-2.93-1.4-3.89c-.94-.98-2.11-1.48-3.53-1.48s-2.63,.49-3.56,1.48c-.94,.96-1.4,2.26-1.4,3.89s.47,2.94,1.4,3.92c.94,.96,2.12,1.44,3.56,1.44Z"/>
</svg>