<?xml version="1.0" encoding="UTF-8"?>
<svg id="Layer_1" data-name="Layer 1" xmlns="http://www.w3.org/2000/svg" width="191.87" height="1026.33" viewBox="0 0 191.87 1026.33">
  <defs>
    <style>
      .cls-1 {
        fill: #fff;
      }

      .cls-2 {
        fill: #04ff00;
      }
    </style>
  </defs>
  <path class="cls-2" d="M9.68,201.64c-2.11-37.49,26.58-69.6,64.07-71.71,37.49-2.11,69.6,26.58,71.71,64.07l46.41,824.69-135.79,7.64L9.68,201.64Z"/>
  <path class="cls-2" d="M12.34,266.75L.15,50.19,12.77,25.19l-3.98,27.14L51.44,810.26l-8.49,.48"/>
  <path class="cls-2" d="M149.31,244.55l-11.86-210.76-15.3-22.78,8.04,44.92,41.51,737.53,8.49-.48"/>
  <path class="cls-2" d="M33.83,79.09c17.64-.99,31.13-16.33,30.12-34.25-1.01-17.92-16.13-31.64-33.78-30.65C12.53,15.19-.96,30.52,.05,48.44c1.01,17.92,16.13,31.64,33.78,30.65Z"/>
  <path class="cls-2" d="M107.15,64.95c17.64-.99,31.13-16.32,30.12-34.25C136.26,12.78,121.14-.94,103.5,.05c-17.64,.99-31.13,16.33-30.12,34.25,1.01,17.92,16.13,31.64,33.78,30.65Z"/>
  <path class="cls-1" d="M41.31,69.65c12.13-.68,21.42-10.85,20.76-22.7-.67-11.85-11.04-20.91-23.17-20.23-12.13,.68-21.42,10.85-20.76,22.7,.67,11.85,11.04,20.91,23.17,20.23Z"/>
  <path d="M40.47,54.68c3.86-.22,6.81-3.52,6.6-7.38-.22-3.86-3.52-6.81-7.38-6.6-3.86,.22-6.81,3.52-6.6,7.38,.22,3.86,3.52,6.81,7.38,6.6Z"/>
  <path class="cls-1" d="M98.49,53.42c12.13-.68,21.42-10.85,20.76-22.7-.67-11.85-11.04-20.91-23.17-20.23-12.13,.68-21.42,10.85-20.76,22.7,.67,11.85,11.04,20.91,23.17,20.23Z"/>
  <path d="M98.7,39.38c3.86-.22,6.81-3.52,6.6-7.38-.22-3.86-3.52-6.81-7.38-6.6-3.86,.22-6.81,3.52-6.6,7.38,.22,3.86,3.52,6.81,7.38,6.6Z"/>
  <path class="cls-1" d="M60.47,178.75l15.29,40.46-25.94,1.46,10.65-41.91Z"/>
  <path class="cls-1" d="M95.42,176.78l15.29,40.45-25.94,1.46,10.65-41.91Z"/>
</svg>