<?xml version="1.0" encoding="UTF-8"?>
<svg id="Layer_1" data-name="Layer 1" xmlns="http://www.w3.org/2000/svg" width="675.07" height="383.63" xmlns:xlink="http://www.w3.org/1999/xlink" viewBox="0 0 675.07 383.63">
  <defs>
    <style>
      .cls-1, .cls-2, .cls-3 {
        fill: none;
      }

      .cls-4 {
        clip-path: url(#clippath);
      }

      .cls-2, .cls-5, .cls-3 {
        stroke-width: 15px;
      }

      .cls-2, .cls-3, .cls-6 {
        stroke: #82368c;
        stroke-miterlimit: 10;
      }

      .cls-5 {
        fill: #fff;
        stroke: #04ff00;
      }

      .cls-3 {
        stroke-linecap: square;
      }

      .cls-6 {
        fill: #82368c;
        stroke-width: .75px;
      }
    </style>
    <clipPath id="clippath">
      <rect class="cls-1" x="95.5" y="107.5" width="425.48" height="119.3"/>
    </clipPath>
  </defs>
  <path class="cls-5" d="M599.5,195.5V7.5H7.5V255.5l500,120,156-120-64-60Z"/>
  <g class="cls-4">
    <g>
      <path class="cls-3" d="M276.35,124.52v30.22c0,17.61,14.28,31.89,31.89,31.89s31.89-14.28,31.89-31.89v-30.22"/>
      <path class="cls-3" d="M340.13,154.74v33.56"/>
      <path class="cls-2" d="M134.89,188.3c17.61,0,31.89-14.28,31.89-31.89s-14.28-31.89-31.89-31.89-31.89,14.28-31.89,31.89,14.28,31.89,31.89,31.89Z"/>
      <path class="cls-3" d="M166.78,188.3v-24.36"/>
      <path class="cls-6" d="M135.35,167.61c6.19,0,11.2-5.01,11.2-11.2s-5.01-11.2-11.2-11.2-11.2,5.01-11.2,11.2,5.01,11.2,11.2,11.2Z"/>
      <path class="cls-2" d="M481.59,185.3c17.61,0,31.89-14.28,31.89-31.89s-14.28-31.89-31.89-31.89-31.89,14.28-31.89,31.89,14.28,31.89,31.89,31.89Z"/>
      <path class="cls-3" d="M513.48,185.3v-24.36"/>
      <path class="cls-6" d="M482.06,164.61c6.19,0,11.2-5.01,11.2-11.2s-5.01-11.2-11.2-11.2-11.2,5.01-11.2,11.2,5.01,11.2,11.2,11.2Z"/>
      <path class="cls-2" d="M221.57,189.86c17.61,0,31.89-14.28,31.89-31.89s-14.28-31.89-31.89-31.89-31.89,14.28-31.89,31.89,14.28,31.89,31.89,31.89Z"/>
      <path class="cls-3" d="M221.57,140.76v78.54"/>
      <path class="cls-6" d="M213.1,131.15h-17.79v-22.57l17.79,22.57Z"/>
      <path class="cls-6" d="M230.04,131.15h17.78v-22.57l-17.78,22.57Z"/>
      <path class="cls-3" d="M363.03,124.52v31.89c0,17.61,14.28,31.89,31.89,31.89v-63.78"/>
      <path class="cls-3" d="M394.92,124.52v31.89c0,17.61,14.28,31.89,31.89,31.89v-63.78"/>
    </g>
  </g>
</svg>