<?xml version="1.0" encoding="UTF-8"?>
<svg id="Layer_1" data-name="Layer 1" xmlns="http://www.w3.org/2000/svg" width="840.05" height="411.92" viewBox="0 0 840.05 411.92">
  <defs>
    <style>
      .cls-1, .cls-2, .cls-3 {
        stroke-width: 15px;
      }

      .cls-1, .cls-3 {
        fill: none;
      }

      .cls-1, .cls-3, .cls-4 {
        stroke: #e6332a;
        stroke-miterlimit: 10;
      }

      .cls-2 {
        fill: #fff;
        stroke: #04ff00;
      }

      .cls-3 {
        stroke-linecap: square;
      }

      .cls-4 {
        fill: #e6332a;
        stroke-width: .75px;
      }
    </style>
  </defs>
  <path class="cls-2" d="M188.5,315.5H92.5L7.5,291.5V7.5H827.5l-43,80-28,120v84l-68,88H356.5l-104,24-64-88Z"/>
  <path class="cls-3" d="M351.93,264.17v-31.89c0-17.61,14.28-31.89,31.89-31.89v63.78"/>
  <path class="cls-1" d="M611.96,260.34c-17.61,0-31.89-14.28-31.89-31.89s14.28-31.89,31.89-31.89"/>
  <path class="cls-1" d="M580.07,228.45h26.11"/>
  <path class="cls-1" d="M335.43,264.17c-17.61,0-31.89-14.28-31.89-31.89s14.28-31.89,31.89-31.89"/>
  <path class="cls-3" d="M291.38,170.96v93.21"/>
  <path class="cls-1" d="M525.29,258.72c17.61,0,31.89-14.28,31.89-31.89s-14.28-31.89-31.89-31.89-31.89,14.28-31.89,31.89,14.28,31.89,31.89,31.89Z"/>
  <path class="cls-1" d="M493.4,226.83v-61.33h63.78"/>
  <path class="cls-4" d="M525.28,199.56c15.05,15.05,15.05,39.48,0,54.53-15.05-15.05-15.05-39.48,0-54.53Z"/>
  <path class="cls-4" d="M518.23,254.1h-17.78v22.57l17.78-22.57Z"/>
  <path class="cls-4" d="M535.18,254.1h17.78v22.57l-17.78-22.57Z"/>
  <path class="cls-3" d="M406.72,200.39v30.22c0,17.61,14.28,31.89,31.89,31.89s31.89-14.28,31.89-31.89v-30.22"/>
  <path class="cls-1" d="M470.5,232.67v61.33h-63.78"/>
  <path class="cls-4" d="M197.39,243.48c6.19,0,11.2-5.01,11.2-11.2s-5.01-11.2-11.2-11.2-11.2,5.01-11.2,11.2,5.01,11.2,11.2,11.2Z"/>
  <path class="cls-1" d="M197.39,264.17c17.61,0,31.89-14.28,31.89-31.89s-14.28-31.89-31.89-31.89-31.89,14.28-31.89,31.89,14.28,31.89,31.89,31.89Z"/>
</svg>