<?xml version="1.0" encoding="UTF-8"?>
<svg id="Layer_1" data-name="Layer 1" xmlns="http://www.w3.org/2000/svg" width="1013.52" height="447.33" viewBox="0 0 1013.52 447.33">
  <defs>
    <style>
      .cls-1, .cls-2, .cls-3, .cls-4, .cls-5 {
        stroke-miterlimit: 10;
      }

      .cls-1, .cls-2, .cls-6, .cls-4, .cls-5 {
        stroke-width: 15px;
      }

      .cls-1, .cls-2, .cls-4, .cls-5 {
        fill: none;
      }

      .cls-1, .cls-5 {
        stroke: #e6332a;
      }

      .cls-2, .cls-3, .cls-4 {
        stroke: #000;
      }

      .cls-7 {
        fill: #e6332a;
      }

      .cls-6 {
        fill: #fff;
        stroke: #04ff00;
      }

      .cls-4, .cls-5 {
        stroke-linecap: square;
      }
    </style>
  </defs>
  <path class="cls-6" d="M302.02,339.5L10.02,359.5,45.02,231.5,10.02,7.5H1006.02V231.5l-52,24-52,104-320,80-280-100Z"/>
  <path class="cls-4" d="M443.43,259.75v-31.64c0-17.47,14.21-31.64,31.73-31.64v63.28"/>
  <path class="cls-2" d="M321.57,259.75c-17.52,0-31.73-14.17-31.73-31.64s14.21-31.64,31.73-31.64"/>
  <path class="cls-4" d="M277.76,167.25v92.5"/>
  <path class="cls-2" d="M426.25,259.75c-17.52,0-31.73-14.17-31.73-31.64s14.21-31.64,31.73-31.64"/>
  <path class="cls-4" d="M382.42,167.25v92.5"/>
  <path class="cls-2" d="M618.39,258.97c17.52,0,31.73-14.17,31.73-31.64s-14.21-31.64-31.73-31.64-31.73,14.17-31.73,31.64,14.21,31.64,31.73,31.64Z"/>
  <path class="cls-2" d="M586.66,227.33v-60.85h63.46"/>
  <path class="cls-3" d="M618.38,200.27c14.98,14.93,14.98,39.18,0,54.11-14.97-14.93-14.97-39.18,0-54.11Z"/>
  <path class="cls-3" d="M611.37,254.38h-17.7v22.39l17.7-22.39Z"/>
  <path class="cls-3" d="M628.23,254.38h17.7v22.39l-17.7-22.39Z"/>
  <path class="cls-1" d="M743.84,255.99c17.52,0,31.73-14.17,31.73-31.64s-14.21-31.64-31.73-31.64-31.73,14.17-31.73,31.64,14.21,31.64,31.73,31.64Z"/>
  <path class="cls-1" d="M712.11,224.35v-60.85h63.46"/>
  <path class="cls-7" d="M743.84,197.29c14.98,14.93,14.98,39.18,0,54.11-14.97-14.93-14.97-39.18,0-54.11Z"/>
  <path class="cls-7" d="M736.83,251.41h-17.7v22.39l17.7-22.39Z"/>
  <path class="cls-7" d="M753.68,251.41h17.7v22.39l-17.7-22.39Z"/>
  <path class="cls-5" d="M797.11,196.45v29.98c0,17.47,14.21,31.64,31.73,31.64s31.73-14.17,31.73-31.64v-29.98"/>
  <path class="cls-1" d="M860.56,228.47v60.85h-63.45"/>
  <path class="cls-1" d="M743.84,255.99c17.52,0,31.73-14.17,31.73-31.64s-14.21-31.64-31.73-31.64-31.73,14.17-31.73,31.64,14.21,31.64,31.73,31.64Z"/>
  <path class="cls-1" d="M712.11,224.35v-60.85h63.46"/>
  <path class="cls-7" d="M743.84,197.29c14.98,14.93,14.98,39.18,0,54.11-14.97-14.93-14.97-39.18,0-54.11Z"/>
  <path class="cls-7" d="M736.83,251.41h-17.7v22.39l17.7-22.39Z"/>
  <path class="cls-7" d="M753.68,251.41h17.7v22.39l-17.7-22.39Z"/>
  <path class="cls-5" d="M797.11,196.45v29.98c0,17.47,14.21,31.64,31.73,31.64s31.73-14.17,31.73-31.64v-29.98"/>
  <path class="cls-1" d="M860.56,228.47v60.85h-63.45"/>
  <path class="cls-4" d="M499.97,196.45v29.98c0,17.47,14.21,31.64,31.73,31.64s31.73-14.17,31.73-31.64v-29.98"/>
  <path class="cls-2" d="M563.43,228.47v60.85h-63.46"/>
  <path class="cls-2" d="M140.89,261.41c17.52,0,31.73-14.17,31.73-31.64s-14.21-31.64-31.73-31.64"/>
  <path class="cls-4" d="M133.48,198.13v92.49"/>
  <path class="cls-3" d="M224.81,240.88c6.15,0,11.14-4.97,11.14-11.11s-4.99-11.11-11.14-11.11-11.14,4.97-11.14,11.11,4.99,11.11,11.14,11.11Z"/>
  <path class="cls-2" d="M224.81,261.41c17.52,0,31.73-14.17,31.73-31.64s-14.21-31.64-31.73-31.64-31.73,14.17-31.73,31.64,14.21,31.64,31.73,31.64Z"/>
  <path class="cls-2" d="M333.64,228.11h31.6"/>
  <path d="M159.09,288.38v9.68h-2.81v-7.38h-4.03v7.38h-2.79v-9.68h9.63Zm7.66-.14c1.03,0,1.93,.2,2.7,.61,.77,.41,1.36,.99,1.78,1.75,.42,.76,.63,1.64,.63,2.65s-.2,1.85-.59,2.61c-.4,.74-.95,1.33-1.67,1.75-.72,.41-1.55,.61-2.48,.61-1.24,0-2.2-.39-2.9-1.17v4.52h-2.81v-8.3c0-1,.22-1.87,.67-2.63,.44-.76,1.07-1.34,1.87-1.76,.8-.42,1.74-.63,2.81-.63h-.01Zm-.13,7.66c.73,0,1.33-.25,1.78-.74,.46-.49,.68-1.13,.68-1.93s-.23-1.45-.68-1.94c-.46-.5-1.05-.76-1.78-.76s-1.33,.25-1.78,.74c-.44,.49-.67,1.14-.67,1.94s.22,1.45,.67,1.94c.44,.49,1.04,.74,1.78,.74h0Zm16.78-7.51v9.68h-2.68v-1.13c-.36,.42-.8,.74-1.33,.95-.52,.22-1.07,.32-1.66,.32-1.27,0-2.29-.37-3.04-1.1-.74-.73-1.12-1.82-1.12-3.26v-5.47h2.81v5.06c0,1.56,.65,2.34,1.96,2.34,.68,0,1.23-.22,1.64-.65,.41-.44,.61-1.1,.61-1.96v-4.79h2.81Zm12.74-.13c1.03,0,1.93,.2,2.7,.61,.77,.41,1.36,.99,1.78,1.75,.42,.76,.63,1.64,.63,2.65s-.2,1.85-.59,2.61c-.4,.74-.95,1.33-1.67,1.75-.72,.41-1.55,.61-2.48,.61-1.24,0-2.2-.39-2.9-1.17v4.52h-2.81v-8.3c0-1,.22-1.87,.67-2.63,.44-.76,1.07-1.34,1.87-1.76,.8-.42,1.74-.63,2.81-.63h-.01Zm-.13,7.66c.73,0,1.33-.25,1.78-.74,.46-.49,.68-1.13,.68-1.93s-.23-1.45-.68-1.94c-.46-.5-1.05-.76-1.78-.76s-1.33,.25-1.78,.74c-.44,.49-.67,1.14-.67,1.94s.22,1.45,.67,1.94c.44,.49,1.04,.74,1.78,.74h0Zm16.99-7.51v9.68h-2.68v-1.12c-.7,.84-1.7,1.26-3.02,1.26-.91,0-1.74-.2-2.48-.61-.73-.41-1.31-.99-1.73-1.75-.42-.76-.63-1.63-.63-2.63s.21-1.87,.63-2.63c.42-.76,1-1.34,1.73-1.75,.74-.41,1.57-.61,2.48-.61,1.24,0,2.2,.39,2.9,1.17v-1.03h2.81v.02Zm-5.23,7.52c.71,0,1.3-.24,1.76-.72,.47-.49,.7-1.15,.7-1.96s-.23-1.46-.7-1.94c-.47-.49-1.06-.74-1.76-.74s-1.31,.25-1.78,.74c-.47,.48-.7,1.13-.7,1.94s.23,1.47,.7,1.96c.47,.48,1.06,.72,1.78,.72Zm14.07-2.88c.58,.18,1.02,.46,1.33,.83,.32,.37,.49,.82,.49,1.33,0,.61-.21,1.15-.63,1.62-.42,.46-1,.81-1.73,1.06-.73,.25-1.56,.38-2.48,.38-.76,0-1.5-.08-2.23-.23-.73-.16-1.41-.39-2.03-.7l.76-1.96c1.02,.49,2.15,.74,3.38,.74,.66,0,1.18-.1,1.55-.29,.38-.2,.58-.49,.58-.85,0-.31-.13-.55-.4-.7-.26-.17-.65-.25-1.15-.25h-1.98v-1.75h1.73c.49,0,.87-.08,1.13-.23,.26-.16,.4-.38,.4-.68s-.17-.55-.5-.72c-.32-.17-.79-.25-1.4-.25-.94,0-1.96,.22-3.06,.67l-.68-1.94c1.34-.59,2.65-.88,3.92-.88,.88,0,1.66,.11,2.34,.32,.7,.22,1.24,.53,1.64,.95,.4,.41,.59,.89,.59,1.44,0,.46-.14,.87-.41,1.24-.28,.36-.65,.65-1.13,.86h-.03Zm11.26-.03c1.14,.38,1.71,1.15,1.71,2.3,0,.88-.33,1.55-.99,2.03-.66,.48-1.64,.72-2.95,.72h-5.17v-9.68h4.95c1.21,0,2.16,.22,2.84,.67,.68,.43,1.03,1.04,1.03,1.84,0,.48-.13,.91-.38,1.28-.24,.36-.59,.64-1.04,.85h0Zm-4.82-.66h2.12c.98,0,1.48-.35,1.48-1.04s-.49-1.03-1.48-1.03h-2.12v2.07Zm2.36,3.8c1.03,0,1.55-.35,1.55-1.06,0-.37-.12-.64-.36-.81-.24-.18-.62-.27-1.13-.27h-2.41v2.14h2.35Zm15.55-7.78v9.68h-2.81v-7.38h-3.06l-.09,1.71c-.05,1.27-.17,2.33-.36,3.17-.19,.84-.5,1.5-.94,1.98-.43,.48-1.03,.72-1.8,.72-.41,0-.89-.07-1.46-.22l.14-2.3c.19,.02,.33,.04,.41,.04,.42,0,.73-.15,.94-.45,.22-.31,.36-.7,.43-1.17,.07-.48,.13-1.11,.16-1.89l.14-3.89h8.3Zm7.52,7.58c.5,0,.95-.07,1.33-.22,.4-.16,.76-.4,1.1-.72l1.49,1.62c-.91,1.04-2.24,1.57-4,1.57-1.09,0-2.06-.21-2.9-.63-.84-.43-1.49-1.03-1.94-1.78-.46-.76-.68-1.61-.68-2.57s.22-1.8,.67-2.56c.46-.77,1.07-1.36,1.85-1.78,.79-.43,1.68-.65,2.66-.65,.92,0,1.76,.2,2.52,.59,.76,.38,1.36,.95,1.8,1.69,.46,.73,.68,1.6,.68,2.61l-7.16,1.39c.2,.48,.52,.84,.95,1.08,.44,.24,.98,.36,1.62,.36h0Zm-.41-5.6c-.71,0-1.28,.23-1.73,.68-.44,.46-.68,1.09-.7,1.89l4.72-.92c-.13-.5-.4-.91-.81-1.21-.41-.3-.9-.45-1.48-.45h0Zm11.21,4.04h-1.46v3.67h-2.81v-9.68h2.81v3.76h1.51l2.63-3.76h2.99l-3.38,4.64,3.62,5.04h-3.31l-2.59-3.67h-.01Zm16.76-6.01v9.68h-2.68v-1.12c-.7,.84-1.7,1.26-3.02,1.26-.91,0-1.74-.2-2.48-.61-.73-.41-1.31-.99-1.73-1.75-.42-.76-.63-1.63-.63-2.63s.21-1.87,.63-2.63c.42-.76,1-1.34,1.73-1.75,.74-.41,1.57-.61,2.48-.61,1.24,0,2.2,.39,2.9,1.17v-1.03h2.81v.02Zm-5.23,7.52c.71,0,1.3-.24,1.76-.72,.47-.49,.7-1.15,.7-1.96s-.23-1.46-.7-1.94c-.47-.49-1.06-.74-1.76-.74s-1.31,.25-1.78,.74c-.47,.48-.7,1.13-.7,1.94s.23,1.47,.7,1.96c.47,.48,1.06,.72,1.78,.72Zm20.26-7.67c1.21,0,2.17,.36,2.88,1.08,.72,.71,1.08,1.78,1.08,3.2v5.54h-2.81v-5.11c0-.77-.16-1.34-.49-1.71-.31-.38-.76-.58-1.35-.58-.66,0-1.18,.22-1.57,.65-.38,.42-.58,1.05-.58,1.89v4.86h-2.81v-5.11c0-1.52-.61-2.29-1.84-2.29-.65,0-1.16,.22-1.55,.65-.38,.42-.58,1.05-.58,1.89v4.86h-2.81v-9.68h2.68v1.12c.36-.41,.8-.72,1.31-.94,.53-.22,1.1-.32,1.73-.32,.68,0,1.3,.14,1.85,.41,.55,.26,1,.65,1.33,1.17,.4-.5,.89-.89,1.49-1.17,.61-.28,1.28-.41,2-.41h.04Zm11.23,7.72c.5,0,.95-.07,1.33-.22,.4-.16,.76-.4,1.1-.72l1.49,1.62c-.91,1.04-2.24,1.57-4,1.57-1.09,0-2.06-.21-2.9-.63-.84-.43-1.49-1.03-1.94-1.78-.46-.76-.68-1.61-.68-2.57s.22-1.8,.67-2.56c.46-.77,1.07-1.36,1.85-1.78,.79-.43,1.68-.65,2.66-.65,.92,0,1.76,.2,2.52,.59,.76,.38,1.36,.95,1.8,1.69,.46,.73,.68,1.6,.68,2.61l-7.16,1.39c.2,.48,.52,.84,.95,1.08,.44,.24,.98,.36,1.62,.36h.01Zm-.41-5.6c-.71,0-1.28,.23-1.73,.68-.44,.46-.68,1.09-.7,1.89l4.72-.92c-.13-.5-.4-.91-.81-1.21s-.9-.45-1.48-.45h0Zm16.15-1.97v9.68h-2.81v-7.38h-3.06l-.09,1.71c-.05,1.27-.17,2.33-.36,3.17s-.5,1.5-.94,1.98c-.43,.48-1.03,.72-1.8,.72-.41,0-.89-.07-1.46-.22l.14-2.3c.19,.02,.33,.04,.41,.04,.42,0,.73-.15,.94-.45,.22-.31,.36-.7,.43-1.17,.07-.48,.13-1.11,.16-1.89l.14-3.89h8.3Zm7.15,9.95c-1.54,0-2.7-.34-3.49-1.03-.78-.68-1.17-1.69-1.17-3.02v-5.9h2.79v3.28c.3-.22,.68-.38,1.15-.5,.48-.12,1.01-.18,1.6-.18,1.21,0,2.16,.3,2.84,.9,.68,.6,1.03,1.48,1.03,2.63,0,1.24-.43,2.18-1.28,2.84-.84,.66-2,.99-3.47,.99h0Zm0-1.99c.6,0,1.06-.16,1.39-.49,.34-.32,.5-.76,.5-1.31s-.16-.94-.49-1.24c-.31-.3-.76-.45-1.35-.45-.43,0-.82,.08-1.15,.23-.34,.16-.59,.38-.77,.67v.79c0,.56,.16,1.01,.49,1.33,.34,.31,.8,.47,1.39,.47h0Zm6.56-7.97h2.79v3.78h4.21v-3.78h2.81v9.68h-2.81v-3.62h-4.21v3.62h-2.79v-9.68Zm17.03,9.83c-1.02,0-1.94-.21-2.75-.63-.8-.43-1.43-1.03-1.89-1.78-.46-.76-.68-1.61-.68-2.57s.23-1.82,.68-2.57c.45-.75,1.09-1.34,1.89-1.76,.82-.43,1.73-.65,2.75-.65s1.93,.22,2.74,.65c.8,.42,1.43,1.01,1.89,1.76,.46,.75,.68,1.61,.68,2.57s-.23,1.82-.68,2.57c-.46,.76-1.09,1.35-1.89,1.78-.8,.42-1.72,.63-2.74,.63Zm0-2.3c.72,0,1.31-.24,1.76-.72,.47-.49,.7-1.15,.7-1.96s-.23-1.46-.7-1.94c-.46-.49-1.04-.74-1.76-.74s-1.31,.25-1.78,.74c-.47,.48-.7,1.13-.7,1.94s.23,1.47,.7,1.96c.47,.48,1.06,.72,1.78,.72Zm16.69,2.16v-5.8l-2.9,4.86h-1.19l-2.83-4.88v5.81h-2.54v-9.68h2.93l3.1,5.6,3.29-5.6h2.63l.04,9.68h-2.53Zm21.23-2.29v4.43h-2.61v-2.12h-8.3v-9.68h2.79v7.38h3.91v-7.38h2.81v7.38h1.4Zm6.59,.19c.5,0,.95-.07,1.33-.22,.4-.16,.76-.4,1.1-.72l1.49,1.62c-.91,1.04-2.24,1.57-4,1.57-1.09,0-2.06-.21-2.9-.63-.84-.43-1.49-1.03-1.94-1.78-.46-.76-.68-1.61-.68-2.57s.22-1.8,.67-2.56c.46-.77,1.07-1.36,1.85-1.78,.79-.43,1.68-.65,2.66-.65,.92,0,1.76,.2,2.52,.59,.76,.38,1.36,.95,1.8,1.69,.46,.73,.68,1.6,.68,2.61l-7.16,1.39c.2,.48,.52,.84,.95,1.08,.44,.24,.98,.36,1.62,.36h0Zm-.41-5.6c-.71,0-1.28,.23-1.73,.68-.44,.46-.68,1.09-.7,1.89l4.72-.92c-.13-.5-.4-.91-.81-1.21s-.9-.45-1.48-.45h0Zm6.95-1.97h2.79v3.78h4.21v-3.78h2.81v9.68h-2.81v-3.62h-4.21v3.62h-2.79v-9.68Zm24.88-.14c1.21,0,2.17,.36,2.88,1.08,.72,.71,1.08,1.78,1.08,3.2v5.54h-2.81v-5.11c0-.77-.16-1.34-.49-1.71-.31-.38-.76-.58-1.35-.58-.66,0-1.18,.22-1.57,.65-.38,.42-.58,1.05-.58,1.89v4.86h-2.81v-5.11c0-1.52-.61-2.29-1.84-2.29-.65,0-1.16,.22-1.55,.65-.38,.42-.58,1.05-.58,1.89v4.86h-2.81v-9.68h2.68v1.12c.36-.41,.8-.72,1.31-.94,.53-.22,1.1-.32,1.73-.32,.68,0,1.3,.14,1.85,.41,.55,.26,1,.65,1.33,1.17,.4-.5,.89-.89,1.49-1.17,.61-.28,1.28-.41,2-.41h.04Zm11.38,0c1.03,0,1.93,.2,2.7,.61,.77,.41,1.36,.99,1.78,1.75,.42,.76,.63,1.64,.63,2.65s-.2,1.85-.59,2.61c-.4,.74-.95,1.33-1.67,1.75-.72,.41-1.55,.61-2.48,.61-1.24,0-2.2-.39-2.9-1.17v4.52h-2.81v-8.3c0-1,.22-1.87,.67-2.63,.44-.76,1.07-1.34,1.87-1.76,.8-.42,1.74-.63,2.81-.63h0Zm-.13,7.66c.73,0,1.33-.25,1.78-.74,.46-.49,.68-1.13,.68-1.93s-.23-1.45-.68-1.94c-.46-.5-1.05-.76-1.78-.76s-1.33,.25-1.78,.74c-.44,.49-.67,1.14-.67,1.94s.22,1.45,.67,1.94c.44,.49,1.04,.74,1.78,.74h0Zm12.04,.06c.5,0,.95-.07,1.33-.22,.4-.16,.76-.4,1.1-.72l1.49,1.62c-.91,1.04-2.24,1.57-4,1.57-1.09,0-2.06-.21-2.9-.63-.84-.43-1.49-1.03-1.94-1.78-.46-.76-.68-1.61-.68-2.57s.22-1.8,.67-2.56c.46-.77,1.07-1.36,1.85-1.78,.79-.43,1.68-.65,2.66-.65,.92,0,1.76,.2,2.52,.59,.76,.38,1.36,.95,1.8,1.69,.46,.73,.68,1.6,.68,2.61l-7.16,1.39c.2,.48,.52,.84,.95,1.08,.44,.24,.98,.36,1.62,.36h.01Zm-.41-5.6c-.71,0-1.28,.23-1.73,.68-.44,.46-.68,1.09-.7,1.89l4.72-.92c-.13-.5-.4-.91-.81-1.21-.41-.3-.9-.45-1.48-.45h0Zm12.26-4.89h10.17v2.32h-7.27v2.59h3.49c1.52,0,2.68,.32,3.47,.95,.8,.64,1.21,1.55,1.21,2.75,0,1.26-.44,2.24-1.33,2.93-.89,.69-2.14,1.04-3.76,1.04h-5.98v-12.58Zm5.81,10.44c.74,0,1.31-.14,1.71-.43,.4-.3,.59-.73,.59-1.3,0-1.1-.77-1.66-2.3-1.66h-2.92v3.38h2.92Zm18.65-10.43v8.66c0,1.9-.53,3.35-1.58,4.36-1.06,1.02-2.51,1.53-4.37,1.53-1.07,0-2.05-.15-2.93-.45-.89-.29-1.64-.7-2.27-1.24l1.13-2.16c1.14,.92,2.47,1.39,4,1.39,1.06,0,1.84-.26,2.34-.79,.52-.54,.77-1.37,.77-2.48v-.77c-.84,1.03-2.03,1.55-3.56,1.55s-2.83-.45-3.69-1.35c-.85-.91-1.28-2.22-1.28-3.92v-4.3h2.92v4.12c0,.98,.23,1.73,.7,2.23s1.13,.76,1.98,.76c.9,0,1.61-.26,2.14-.79,.53-.53,.79-1.33,.79-2.39v-3.92h2.92v-.04Z"/>
</svg>