<?xml version="1.0" encoding="UTF-8"?>
<svg id="Layer_1" data-name="Layer 1" xmlns="http://www.w3.org/2000/svg" width="776.61" height="378.14" xmlns:xlink="http://www.w3.org/1999/xlink" viewBox="0 0 776.61 378.14">
  <defs>
    <style>
      .cls-1, .cls-2, .cls-3 {
        fill: none;
      }

      .cls-4 {
        clip-path: url(#clippath);
      }

      .cls-2, .cls-5, .cls-3 {
        stroke-width: 15px;
      }

      .cls-2, .cls-3, .cls-6 {
        stroke: #f39200;
        stroke-miterlimit: 10;
      }

      .cls-5 {
        fill: #fff;
        stroke: #04ff00;
      }

      .cls-3 {
        stroke-linecap: square;
      }

      .cls-6 {
        fill: #f39200;
        stroke-width: .75px;
      }
    </style>
    <clipPath id="clippath">
      <rect class="cls-1" x="135.83" y="130.69" width="525.4" height="108.97"/>
    </clipPath>
  </defs>
  <path class="cls-5" d="M745.83,149.69L767.83,7.69,7.83,23.69l14,322,70,24,46-38,70,14,138-28,192,28,146-14,62-34V149.69Z"/>
  <g class="cls-4">
    <g>
      <path class="cls-2" d="M319.47,238.48v-68.86h31.89"/>
      <path class="cls-2" d="M444.79,231.41c17.61,0,31.89-14.28,31.89-31.89s-14.28-31.89-31.89-31.89"/>
      <path class="cls-2" d="M444.79,167.63c8.81,0,15.94-6.59,15.94-14.72s-7.14-14.72-15.94-14.72"/>
      <path class="cls-3" d="M501.42,168.38v30.22c0,17.61,14.28,31.89,31.89,31.89s31.89-14.28,31.89-31.89v-30.22"/>
      <path class="cls-3" d="M565.2,198.6v33.56"/>
      <path class="cls-2" d="M263.29,231.41c17.61,0,31.89-14.28,31.89-31.89s-14.28-31.89-31.89-31.89-31.89,14.28-31.89,31.89,14.28,31.89,31.89,31.89Z"/>
      <path class="cls-3" d="M295.18,231.41v-24.36"/>
      <path class="cls-6" d="M263.75,210.72c6.19,0,11.2-5.01,11.2-11.2s-5.01-11.2-11.2-11.2-11.2,5.01-11.2,11.2,5.01,11.2,11.2,11.2Z"/>
      <path class="cls-2" d="M395.38,231.41c17.61,0,31.89-14.28,31.89-31.89s-14.28-31.89-31.89-31.89-31.89,14.28-31.89,31.89,14.28,31.89,31.89,31.89Z"/>
      <path class="cls-3" d="M427.27,231.41v-24.36"/>
      <path class="cls-6" d="M395.85,210.72c6.19,0,11.2-5.01,11.2-11.2s-5.01-11.2-11.2-11.2-11.2,5.01-11.2,11.2,5.01,11.2,11.2,11.2Z"/>
      <path class="cls-3" d="M143.33,231.41v-31.89c0-17.61,14.28-31.89,31.89-31.89v63.78"/>
      <path class="cls-3" d="M175.22,231.41v-31.89c0-17.61,14.28-31.89,31.89-31.89v63.78"/>
      <path class="cls-3" d="M589.95,168.38v63.78"/>
      <path class="cls-3" d="M653.73,168.38v63.78"/>
      <path class="cls-3" d="M589.95,200.27h63.78"/>
    </g>
  </g>
</svg>