<?xml version="1.0" encoding="UTF-8"?>
<svg id="Layer_1" data-name="Layer 1" xmlns="http://www.w3.org/2000/svg" width="403.51" height="160" viewBox="0 0 403.51 160">
  <defs>
    <style>
      .cls-1 {
        fill: #fff;
      }
    </style>
  </defs>
  <path class="cls-1" d="M173.03,118.72v-35.63c0-2.62,.08-2.67,2.67-2.7h5.8c1.89,0,2.82,.98,2.82,2.93v43.5c0,9.86-.05,19.7,.03,29.53,0,1.92-.55,2.65-2.5,2.5-1.66-.13-3.33-.15-4.99,0-1.97,.18-2.77-.58-3.25-2.5-2.42-10.01-4.99-20-7.49-29.99-.81-3.15-1.61-6.3-2.62-9.43v3.43c0,11.98-.05,23.96,.05,35.94,0,1.99-.5,2.72-2.57,2.57-2.37-.18-4.79-.08-7.19,0-1.11,.03-1.61-.4-1.56-1.51V83.51c0-2.07,1.01-3.13,3.05-3.13,1.79,0,3.61,.13,5.4-.03,2.02-.18,2.9,.5,3.38,2.57,2.67,11.45,5.5,22.87,8.27,34.32,.13,.5,.28,.98,.43,1.49,.1,0,.18,0,.28-.03h0Z"/>
  <path class="cls-1" d="M277.51,39.91V3.59c0-2.67,0-2.7,2.65-2.7,2.32,0,4.67,.03,6.99,0,1.19,0,1.71,.5,1.69,1.66V76.4c0,1.97-1.01,2.95-3,2.95-1.74,0-3.46-.08-5.2,0-1.46,.08-2.07-.55-2.42-1.97-3.28-13.29-6.66-26.56-10.01-39.82-.05-.18-.15-.35-.45-.93v40c0,2.67,0,2.7-2.62,2.72-2.12,0-4.26-.05-6.38,0-1.59,.05-2.19-.61-2.04-2.12,.05-.4,0-.81,0-1.19V3.82c0-1.94,1.01-2.93,3-2.93s3.98,.08,5.98-.03c1.51-.08,2.19,.38,2.57,1.97,2.82,11.9,5.72,23.78,8.62,35.66,.13,.5,.28,1.01,.4,1.51,.08-.03,.13-.05,.2-.08h0l.03-.03Z"/>
  <path class="cls-1" d="M145.01,40.16V3.64c0-2.72,0-2.75,2.8-2.75h16.37c8.35,0,11.6,2.7,12.28,11,.48,5.67,.4,11.42-.08,17.12-.23,2.82-1.29,5.27-3.51,7.14-.48,.4-1.06,.78-.18,1.34,3.46,2.17,3.91,5.65,3.91,9.26v25.14c0,1.99-.03,3.98,.73,5.9,.48,1.21-.08,1.56-1.19,1.56-3.05,0-6.13-.05-9.18,0-1.74,.03-2.14-1.21-2.32-2.45-.25-1.77-.4-3.58-.43-5.35-.05-7.59,0-15.16-.03-22.75,0-3.58-2.62-5.32-6.08-4.19-1.06,.35-.68,1.19-.68,1.82v28.93c0,4.54,.13,3.93-4.01,3.96-2.07,0-4.14-.08-6.18,.03-1.77,.1-2.32-.61-2.29-2.32,.08-7.84,.03-15.69,.03-23.53v-13.37h0l.03,.03Zm12.46-17.98v8.75c0,.86-.03,1.71,1.19,1.94,3.4,.63,5.47-.91,5.52-4.39,.08-4.04,.05-8.1,.03-12.13-.03-3.56-1.01-4.39-4.54-4.46-1.82-.05-2.29,.66-2.24,2.35,.1,2.65,0,5.3,.03,7.97h0l.03-.03Z"/>
  <path class="cls-1" d="M292.69,40.09V3.57q0-2.65,2.67-2.65c5.45,0,10.92-.03,16.37,0,7.79,.05,12.36,4.31,12.69,12.11,.68,16.82,.15,33.64,.25,50.49,0,1.92-.23,3.86-.63,5.72-1.29,6.36-5.12,9.81-11.6,10.06-5.98,.23-11.98,.03-17.96,.08-1.82,0-1.82-1.08-1.82-2.37V40.09h.03Zm12.23-.33c0,8.57,.03,17.17,0,25.75,0,1.51,.38,2.14,2.02,2.12,3.51-.08,4.92-1.24,4.94-4.77,.05-15.51,0-30.99,0-46.5,0-.71-.13-1.46-.35-2.14-.68-1.89-2.65-2.7-5.4-2.24-2.04,.35-1.11,2.02-1.13,3.05-.08,8.25-.05,16.49-.05,24.74h-.03Z"/>
  <path class="cls-1" d="M304.22,119.58v-23.73c0-2.22,.4-4.36,1.06-6.46,1.84-5.98,5.93-9.05,12.96-9.68,2.6-.23,5.2-.08,7.74,.45,6.48,1.36,10.47,6.3,10.79,13.74,.71,15.81,.18,31.65,.28,47.46,0,1.99-.23,3.98-.55,5.95-1.49,8.37-5.85,12.18-14.37,12.63-2.14,.13-4.26,0-6.36-.4-4.72-.91-8.1-3.51-9.91-8.02-1.01-2.5-1.56-5.07-1.59-7.77,0-.66-.03-1.34-.03-1.99v-22.14h.03l-.05-.05Zm20.1,0h0v-15.96c0-2.93,.03-5.85-.18-8.78-.15-2.14-1.54-3.28-3.56-3.3-2.12-.03-3.46,1.13-3.73,3.35-.13,.91-.13,1.87-.13,2.8v43.91c0,1.13,0,2.29,.25,3.38,.43,1.89,1.89,2.9,3.81,2.85,1.77-.05,3.03-1.16,3.33-3.08,.18-1.11,.18-2.24,.18-3.38v-21.76h0l.03-.03Z"/>
  <path class="cls-1" d="M.05,119.6v-36.49c0-2.67,.03-2.7,2.62-2.7h15.76c8.55,.05,13.32,4.64,13.37,13.16,.08,17.22,.03,34.45,0,51.67,0,2.29-.48,4.49-1.36,6.61-1.87,4.46-5.37,6.76-10.06,6.94-6.18,.23-12.36,.03-18.54,.1-1.82,0-1.82-1.06-1.82-2.35v-36.9H.03l.03-.05Zm12.23-.5v25.93c0,.81-.23,1.74,1.03,2.02,3.56,.76,5.85-.88,5.88-4.54,.05-15.48,.05-30.97,0-46.48,0-3.46-1.41-4.59-4.82-4.64-1.61,0-2.17,.48-2.17,2.17,.08,8.5,.03,17.02,.03,25.52h0l.05,.03Z"/>
  <path class="cls-1" d="M373.12,119.63c0,7.79,.03,15.56,0,23.35,0,3.08-.55,6.08-1.77,8.95-1.84,4.34-5.14,6.83-9.76,7.62-3.25,.55-6.51,.53-9.73-.03-6.28-1.08-10.39-5.98-11.25-13.27-.28-2.24-.38-4.49-.38-6.76v-41.51c0-2.35,.23-4.64,.76-6.91,1.59-6.88,5.27-10.21,12.26-11.22,3-.43,5.98-.3,8.93,.28,5.93,1.16,9.56,5.37,10.57,11.98,.28,1.84,.43,3.68,.43,5.57v21.94h-.05Zm-12.56,.13v-22.12c0-.86,0-1.74-.13-2.57-.4-2.24-1.74-3.51-3.68-3.56-1.99-.05-3.25,1.06-3.73,3.4-.15,.71-.23,1.44-.23,2.17v45.04c0,1.21,.13,2.4,.61,3.51,.68,1.56,1.94,2.29,3.66,2.19,1.64-.13,2.67-.96,3.13-2.57,.33-1.19,.38-2.35,.38-3.56v-21.92h0v-.03Z"/>
  <path class="cls-1" d="M300.49,119.58c0,12.23-.05,24.49,.05,36.72,0,2.04-.61,2.7-2.62,2.57-2.45-.15-4.92-.13-7.39,0-1.74,.08-2.29-.53-2.29-2.27,.08-9.91,0-19.82,.08-29.73,0-1.84-.5-2.37-2.35-2.35-5.42,.05-5.42,0-5.42,5.4,0,8.85-.05,17.7,.03,26.53,0,1.79-.5,2.52-2.37,2.42-2.52-.13-5.07-.13-7.57,0-1.92,.1-2.37-.68-2.35-2.45,.08-5.93,.03-11.85,.03-17.75v-55.48c0-1.87,.91-2.8,2.72-2.8h6.78q2.7,0,2.7,2.62c0,8.65,.05,17.3-.05,25.95,0,1.94,.45,2.7,2.55,2.67,5.22-.08,5.22,0,5.22-5.12,0-7.92,.05-15.84-.05-23.76,0-1.87,.61-2.47,2.42-2.4,2.45,.1,4.92,.13,7.39,0,1.92-.1,2.52,.58,2.52,2.5-.08,12.23-.03,24.49-.03,36.72h0Z"/>
  <path class="cls-1" d="M32.2,40.24c0,12.16-.05,24.34,.05,36.52,0,1.97-.5,2.77-2.57,2.65-2.4-.15-4.79-.15-7.19,0-2.09,.13-2.57-.71-2.55-2.67,.08-9.71,0-19.42,.08-29.13,0-1.99-.48-2.65-2.55-2.62-5.22,.13-5.22,0-5.22,5.3,0,8.85-.05,17.68,.05,26.53,0,2.07-.71,2.67-2.65,2.57-2.45-.13-4.92-.13-7.39,0C.5,79.45,0,78.77,0,77.06c.05-12.84,.03-25.67,.03-38.51,.03-11.7,.05-23.4-.03-35.11C0,1.4,.66,.74,2.62,.87c2.45,.15,4.92,.13,7.39,0,1.74-.08,2.29,.53,2.29,2.29-.08,8.85,0,17.68-.08,26.53,0,1.79,.45,2.45,2.35,2.42,5.42-.05,5.42,0,5.42-5.3,0-7.84,.05-15.69-.03-23.53,0-1.82,.5-2.52,2.37-2.42,2.4,.13,4.79,0,7.19,.03,1.79,0,2.7,.96,2.7,2.82V40.24h-.03Z"/>
  <path class="cls-1" d="M139.66,152.08c-.68,1.03-1.21,1.94-1.84,2.77-2.8,3.71-6.41,5.78-11.2,4.97-4.97-.83-7.72-4.14-9.18-8.68-.58-1.84-.86-3.73-.86-5.7v-49.08c0-2.47,.35-4.92,1.11-7.26,1.69-5.25,5.25-8.32,10.72-9.15,3.13-.48,6.23-.43,9.33,.1,6.05,1.03,9.63,5.32,10.11,12.31,.25,3.71,.2,7.44,.33,11.15,.05,1.61-.58,2.27-2.22,2.22-2.65-.1-5.32-.05-7.97,0-1.36,0-1.92-.5-1.89-1.89,.05-2.65,.08-5.32-.03-7.97-.08-1.82-.35-3.66-2.62-4.19-1.77-.43-3.18,.25-3.86,1.94-.45,1.08-.45,2.19-.45,3.33v44.89c0,.93,.05,1.87,.28,2.75,.43,1.66,1.41,2.85,3.33,2.87,2.02,0,3.43-1.01,3.96-2.95,.13-.5,.2-1.03,.2-1.56,0-5.78-.03-11.58,.05-17.35,0-1.66-.71-1.99-2.17-2.02-3.3,0-3.3-.08-3.3-3.3,0-2.4,.03-4.79,0-7.19,0-1.39,.45-2.04,1.97-2.02,4.39,.08,8.78,.08,13.16,0,1.59-.03,2.07,.63,2.07,2.12-.03,14.55,0,29.13,0,43.7,0,1.44-.55,1.97-1.99,1.99-5.04,.1-5.04,.15-6.36-4.59-.2-.68-.43-1.36-.71-2.22h.03Z"/>
  <path class="cls-1" d="M245.76,119.5v22.55c0,.93,0,1.87,.15,2.77,.35,1.94,1.64,3,3.43,2.98,1.84-.03,3.15-1.26,3.4-3.25,.1-.86,.08-1.71,.08-2.6,0-5.2,.03-10.37,0-15.56,0-1.44,.5-2.07,1.97-2.04,2.8,.05,5.6,0,8.37,.03,.91,0,1.82,.13,1.79,1.36-.13,7.24,.61,14.53-.38,21.71-1.06,7.94-4.89,11.47-12.74,12.38-2.93,.33-5.85,.15-8.73-.55-4.26-1.08-7.09-3.78-8.62-7.84-.88-2.32-1.29-4.74-1.29-7.24v-49.28c0-1.54,.23-3.05,.55-4.54,1.51-6.61,5.42-9.91,12.69-10.64,3.05-.3,6.13-.13,9.13,.58,4.49,1.06,7.36,3.88,8.55,8.3,.45,1.66,.76,3.4,.78,5.09,.1,4.92,0,9.84,.08,14.78,0,1.49-.55,2.02-1.99,1.99-2.65-.05-5.32-.08-7.97,0-1.61,.05-2.24-.55-2.22-2.19,.08-4.26,.03-8.52,0-12.76,0-1.87-.58-3.43-2.7-3.88-2.45-.53-4.06,.63-4.26,3.13-.08,.86-.05,1.74-.05,2.6v22.14h-.03Z"/>
  <path class="cls-1" d="M65.22,138.64c0-3.03,.03-5.42,0-7.82-.03-1.41,.5-2.09,1.97-2.07,2.8,.05,5.6,.05,8.37,0,1.59-.03,2.07,.71,2.07,2.19-.03,4.39-.05,8.78,.08,13.16,.05,2.42,1.13,3.58,3.05,3.73,2.19,.18,3.63-.96,3.86-3.35,.63-6.51,.13-12.66-4.62-17.93-3.35-3.76-6.36-7.87-9.26-12-5.52-7.92-5.93-16.85-3.86-25.82,1.44-6.25,6.46-8.55,12.46-9.03,2.8-.23,5.6-.1,8.35,.45,4.94,1.01,7.87,3.96,8.65,8.95,.83,5.27,.38,10.62,.43,15.94,0,1.29-.83,1.49-1.87,1.49-2.72,0-5.45-.05-8.17,0-1.46,.03-1.99-.58-1.99-2.02,.05-3.4,.03-6.78,0-10.16-.03-2.29-1.06-3.61-2.8-3.68-2.04-.1-3.1,1.11-3.4,3.58-.68,5.78,1.08,10.69,4.77,15.13,2.8,3.38,5.27,7.01,8.12,10.37,5.62,6.66,6.99,14.43,6.43,22.8-.25,3.88-.81,7.67-2.95,11.05-1.92,3.03-4.64,4.97-8.12,5.67-3.73,.76-7.57,.78-11.3,0-5.72-1.19-9.33-5.4-9.99-11.25-.38-3.33-.25-6.63-.28-9.33h0v-.05Z"/>
  <path class="cls-1" d="M198.07,138.57c0-2.6,.05-5.2,0-7.79-.05-1.46,.53-2.07,1.97-2.04,2.72,.05,5.45,.05,8.17,0,1.51-.03,2.14,.53,2.09,2.12-.08,3.93,0,7.84,0,11.78,0,.93,.05,1.84,.35,2.75,.55,1.66,1.64,2.5,3.43,2.47,1.84,0,2.9-1.06,3.15-2.75,.98-6.2,.76-12.18-3.58-17.35-2.9-3.48-5.5-7.19-8.37-10.67-5.55-6.73-7.11-14.55-6.51-23,.13-1.71,.23-3.43,.73-5.12,1.64-5.35,5.27-8.27,10.74-9.05,2.85-.4,5.67-.43,8.55-.05,6.76,.86,10.29,4.44,10.59,11.27,.2,4.51,.03,9.05,.08,13.57,0,1.29-.5,1.82-1.77,1.79-2.72-.03-5.45-.05-8.17,0-1.36,0-1.92-.5-1.89-1.89,.05-3.25,.08-6.51,0-9.79-.05-1.56-.08-3.25-1.99-3.96-2.04-.73-3.83,.25-4.11,2.4-.73,5.72,.3,10.89,4.16,15.48,3.33,3.96,6.36,8.2,9.53,12.31,3.76,4.87,5.52,10.39,5.47,16.52,0,4.19,.1,8.37-1.29,12.43-2.09,6.1-6.71,9.53-13.19,9.61-2.27,.03-4.54,.15-6.76-.15-6.83-.98-10.97-5.85-11.25-13.11-.1-2.6,0-5.2,0-7.79h0l-.15,.03Z"/>
  <path class="cls-1" d="M35.21,58.9c0-2.52,.05-5.07,0-7.59-.05-1.59,.61-2.12,2.12-2.09,2.65,.08,5.32,.08,7.97,0,1.69-.05,2.17,.68,2.14,2.27-.08,3.98-.05,7.97,0,11.98,.03,1.97,.33,3.86,2.62,4.64,1.89,.66,3.86-.13,4.19-2.12,1.01-6.03,1.11-11.93-2.98-17.12-3.2-4.06-6.38-8.17-9.53-12.31-3.78-4.97-5.88-10.52-5.78-16.85,.03-1.99,0-3.98,0-5.98,.18-7.72,4.34-12.48,11.98-13.47,3.23-.4,6.51-.38,9.73,.3,5.32,1.11,8.47,4.74,8.78,10.62,.23,4.72,.05,9.43,.1,14.17,0,1.26-.63,1.64-1.74,1.64h-8.37c-1.29,0-1.74-.61-1.74-1.84,.05-3.25,0-6.51,0-9.79,0-1.01-.1-2.02-.58-2.9-.71-1.31-1.97-1.51-3.28-1.26-1.44,.25-2.14,1.26-2.27,2.67-.53,5.32,.05,10.29,3.66,14.63,3.56,4.29,6.83,8.83,10.21,13.27,3.63,4.77,5.4,10.16,5.27,16.17-.08,3.58,.1,7.16-.73,10.72-1.59,6.81-6.1,10.89-13.04,11.45-2.17,.18-4.41,.2-6.58-.05-7.59-.88-11.88-5.72-12.16-13.57-.1-2.52,0-5.04,0-7.59h0Z"/>
  <path class="cls-1" d="M237.82,.92c1.87,0,3.73,.05,5.6,0,1.26-.05,1.79,.55,1.92,1.74,1.34,10.42,2.67,20.83,4.04,31.22,1.54,11.8,3.08,23.58,4.62,35.38,.35,2.77,.66,5.55,1.06,8.3,.2,1.31-.18,1.84-1.54,1.82-2.8-.05-5.6-.05-8.37,0-1.36,0-1.84-.55-1.97-1.89-.33-3.71-.83-7.39-1.13-11.1-.1-1.41-.71-1.82-2.02-1.77-1.46,.05-2.93,.08-4.39,0-1.51-.08-2.09,.5-2.22,2.04-.3,3.63-.81,7.26-1.13,10.89-.13,1.36-.71,1.84-2.02,1.82-2.47-.05-4.92-.08-7.39,0-1.51,.05-1.82-.63-1.64-1.94,.73-5.88,1.44-11.73,2.14-17.6,1.29-10.49,2.57-20.98,3.86-31.45,1.06-8.57,2.14-17.15,3.15-25.72,.15-1.39,.78-1.82,2.07-1.77,1.79,.05,3.58,0,5.4,0h0l-.03,.03Zm-.23,25.27c-.3,3.08-.55,5.6-.83,8.1-.58,5.32-1.13,10.67-1.74,15.99-.15,1.44,.18,2.22,1.87,2.22,3.58,0,3.58,.1,3.15-3.4-.05-.4-.05-.81-.08-1.19-.78-7.04-1.54-14.07-2.4-21.71h.03Z"/>
  <path class="cls-1" d="M126.32,.9c1.74,0,3.46,.05,5.2,0,1.39-.05,1.99,.4,2.19,1.87,1.26,9.89,2.6,19.75,3.88,29.63,1.41,10.74,2.77,21.46,4.19,32.2,.55,4.29,1.11,8.55,1.71,12.84,.18,1.24-.13,1.94-1.51,1.92-2.85,0-5.72-.05-8.57,0-1.64,.03-1.77-1.11-1.89-2.24-.33-3.1-.63-6.2-.93-9.31-.3-3.18-.28-3.18-3.4-3.18-3.35,0-5.22,1.61-5.6,4.87-.3,2.57-.58,5.14-.81,7.72-.13,1.51-.76,2.24-2.4,2.17-2.4-.1-4.79-.05-7.19-.03-1.31,0-1.77-.53-1.59-1.84,1.54-12.26,3.05-24.51,4.56-36.77,1.51-12.46,3.03-24.92,4.49-37.37,.2-1.77,.78-2.65,2.72-2.47,1.64,.15,3.33,.03,4.99,.03h0l-.05-.03Zm-.25,25.9c-.15,.68-.28,1.13-.33,1.59-.71,6.81-1.46,13.59-2.09,20.4-.35,3.98-.23,4.01,3.78,3.71,1.08-.08,1.39-.5,1.24-1.51-.1-.58-.08-1.19-.15-1.79-.81-7.36-1.64-14.75-2.47-22.39h.03Z"/>
  <path class="cls-1" d="M35.61,119.5c0-12.18,.05-24.34-.05-36.52,0-2.02,.61-2.65,2.62-2.62,7.44,.1,14.9,.08,22.34,0,1.94,0,2.57,.66,2.47,2.55-.13,2.32-.13,4.67,0,6.99,.08,1.71-.45,2.4-2.24,2.32-3.53-.1-7.06,0-10.57-.05-1.51-.03-2.17,.43-2.14,2.04,.08,5.4,.05,10.77,0,16.17,0,1.49,.58,1.99,2.02,1.94,2.52-.08,5.04,.05,7.59-.05,1.51-.05,2.19,.4,2.14,2.02-.1,2.8-.08,5.57,0,8.37,.03,1.41-.55,1.89-1.89,1.84-2.52-.05-5.07,.05-7.59-.03-1.59-.05-2.29,.4-2.27,2.12,.08,5.98,.08,11.98,0,17.96,0,1.54,.5,2.12,2.09,2.09,3.78-.08,7.59,.03,11.37-.05,1.61-.03,2.29,.5,2.22,2.17-.08,2.72-.05,5.45,0,8.17,0,1.34-.48,1.92-1.87,1.92-8.12-.03-16.22-.05-24.34,0-1.92,0-1.92-1.11-1.92-2.47v-36.92h0v.05Z"/>
  <path class="cls-1" d="M70.69,39.93V3.62q0-2.72,2.8-2.72h21.74c1.89,0,2.82,.96,2.82,2.9,0,2.27-.05,4.51,0,6.78,.05,1.54-.5,2.14-2.07,2.12-3.73-.08-7.44,.03-11.17-.05-1.49-.03-1.97,.55-1.94,1.99,.05,5.25,.08,10.52,0,15.76-.03,1.71,.63,2.19,2.22,2.14,2.52-.08,5.04,0,7.59-.03,1.46-.03,2.22,.43,2.17,2.04-.08,2.8-.08,5.57,0,8.37,.05,1.59-.63,2.09-2.14,2.07-2.65-.08-5.32,.03-7.97-.03-1.39-.03-1.87,.53-1.84,1.89,.05,6.05,.05,12.11,0,18.16,0,1.39,.53,1.89,1.87,1.89,3.86-.05,7.72,.05,11.58-.03,1.82-.05,2.52,.63,2.45,2.45-.1,2.72-.05,5.45,0,8.17,0,1.36-.55,1.89-1.92,1.87-8.04-.03-16.09-.05-24.13,0-1.79,0-2.04-.86-2.04-2.35,.03-12.36,0-24.74,0-37.1h0Z"/>
  <path class="cls-1" d="M200.54,45.71v30.72c0,2.87-.08,2.93-2.87,2.95h-6.99c-2.45,0-2.55-.1-2.55-2.62V20.09c0-1.66-.1-3.33,.03-4.99,.18-1.99-.68-2.57-2.55-2.45-1.84,.13-3.73,0-5.57,.05-1.21,.03-1.89-.4-1.87-1.71,.03-2.8,.03-5.57,0-8.37,0-1.29,.61-1.71,1.84-1.71,9.58,0,19.14,.03,28.72,0,1.21,0,1.61,.45,1.59,1.64-.08,2.8-.05,5.57,0,8.37,0,1.26-.48,1.82-1.77,1.79-2.07-.05-4.14,.08-6.18-.03-1.49-.08-1.92,.4-1.89,1.92,.08,10.37,.03,20.76,.05,31.12h0Z"/>
  <path class="cls-1" d="M389.08,113.45v30.11q0,2.7,2.8,2.72c3.13,0,6.25,.05,9.38,0,1.56-.03,2.32,.45,2.24,2.17-.1,2.77-.08,5.57,0,8.37,.03,1.41-.4,2.07-1.92,2.04-7.72-.05-15.43-.03-23.13,0-1.29,0-1.84-.53-1.82-1.77V83.31q0-2.9,2.85-2.9h6.78q2.8,0,2.8,2.75v30.31h0v-.03Z"/>
  <path class="cls-1" d="M100.67,119.45v-36.32c0-2.72,0-2.75,2.8-2.75,2.52,0,5.04,.08,7.59,0,1.59-.05,2.12,.61,2.09,2.12-.05,4.26,0,8.5,0,12.76v60.45c0,2.09-1.06,3.13-3.2,3.13-2.27,0-4.54-.1-6.78,.03-1.94,.13-2.52-.61-2.5-2.52,.08-12.31,.03-24.61,.03-36.9h-.03Z"/>
</svg>