<?xml version="1.0" encoding="UTF-8"?>
<svg id="Layer_1" data-name="Layer 1" xmlns="http://www.w3.org/2000/svg" width="148" height="148" viewBox="0 0 148 148">
  <defs>
    <style>
      .cls-1 {
        fill: #04ff00;
      }
    </style>
  </defs>
  <circle class="cls-1" cx="74" cy="74" r="74"/>
  <path d="M42.74,68h11.3v2.58h-8.08v2.88h3.88c1.69,0,2.98,.35,3.86,1.06,.89,.71,1.34,1.73,1.34,3.06,0,1.4-.49,2.49-1.48,3.26-.99,.77-2.38,1.16-4.18,1.16h-6.64v-14Zm6.46,11.6c.83,0,1.46-.16,1.9-.48,.44-.33,.66-.81,.66-1.44,0-1.23-.85-1.84-2.56-1.84h-3.24v3.76h3.24Zm13.11,2.56c-1.13,0-2.15-.23-3.06-.7-.89-.48-1.59-1.14-2.1-1.98-.51-.84-.76-1.79-.76-2.86s.25-2.02,.76-2.86c.51-.84,1.21-1.49,2.1-1.96,.91-.48,1.93-.72,3.06-.72s2.15,.24,3.04,.72c.89,.47,1.59,1.12,2.1,1.96,.51,.84,.76,1.79,.76,2.86s-.25,2.02-.76,2.86c-.51,.84-1.21,1.5-2.1,1.98-.89,.47-1.91,.7-3.04,.7Zm0-2.56c.8,0,1.45-.27,1.96-.8,.52-.55,.78-1.27,.78-2.18s-.26-1.63-.78-2.16c-.51-.55-1.16-.82-1.96-.82s-1.46,.27-1.98,.82c-.52,.53-.78,1.25-.78,2.16s.26,1.63,.78,2.18c.52,.53,1.18,.8,1.98,.8Zm8.05-8.36h3.1v4.2h4.68v-4.2h3.12v10.76h-3.12v-4.02h-4.68v4.02h-3.1v-10.76Zm24.67,0v8.96c0,1.97-.5,3.44-1.5,4.4s-2.45,1.44-4.36,1.44c-1.01,0-1.97-.13-2.88-.38-.89-.25-1.65-.62-2.26-1.1l1.24-2.24c.45,.37,1.01,.67,1.66,.88,.65,.21,1.31,.32,1.98,.32,1.04,0,1.8-.24,2.28-.72s.72-1.21,.72-2.2v-.36c-.4,.4-.87,.71-1.42,.92-.55,.21-1.13,.32-1.76,.32-1.41,0-2.53-.4-3.36-1.2-.83-.81-1.24-2.03-1.24-3.64v-5.4h3.12v4.94c0,1.75,.73,2.62,2.18,2.62,.75,0,1.35-.24,1.8-.72,.45-.49,.68-1.22,.68-2.18v-4.66h3.12Zm8.07,10.92c-1.15,0-2.18-.23-3.1-.7-.91-.48-1.62-1.14-2.14-1.98-.51-.84-.76-1.79-.76-2.86s.25-2.02,.76-2.86c.52-.84,1.23-1.49,2.14-1.96,.92-.48,1.95-.72,3.1-.72s2.12,.24,2.96,.72c.85,.47,1.47,1.14,1.86,2.02l-2.42,1.3c-.56-.99-1.37-1.48-2.42-1.48-.81,0-1.49,.27-2.02,.8-.53,.53-.8,1.26-.8,2.18s.27,1.65,.8,2.18c.53,.53,1.21,.8,2.02,.8,1.07,0,1.87-.49,2.42-1.48l2.42,1.32c-.39,.85-1.01,1.52-1.86,2-.84,.48-1.83,.72-2.96,.72Z"/>
</svg>