<?xml version="1.0" encoding="UTF-8"?>
<svg id="Layer_1" data-name="Layer 1" xmlns="http://www.w3.org/2000/svg" width="137.01" height="22.75" viewBox="0 0 137.01 22.75">
  <path d="M15.78,4.22H5.12l.03,18.18H0V0H15.81l-.03,4.22Zm14.82,.96V22.4h-4.99V9.28h-5.44l-.16,3.04c-.09,2.26-.3,4.14-.64,5.63-.34,1.49-.9,2.67-1.66,3.52s-1.83,1.28-3.2,1.28c-.73,0-1.59-.13-2.59-.38l.26-4.1c.34,.04,.59,.06,.74,.06,.75,0,1.3-.27,1.66-.8,.38-.55,.64-1.25,.77-2.08,.13-.85,.22-1.97,.29-3.36l.26-6.91h14.72Zm22.18,0V22.4h-4.77v-1.98c-1.24,1.49-3.03,2.24-5.38,2.24-1.62,0-3.09-.36-4.42-1.09-1.3-.73-2.33-1.76-3.07-3.1-.75-1.34-1.12-2.9-1.12-4.67s.37-3.33,1.12-4.67c.75-1.34,1.77-2.38,3.07-3.1,1.32-.73,2.79-1.09,4.42-1.09,2.2,0,3.91,.69,5.15,2.08v-1.82h4.99Zm-9.28,13.38c1.26,0,2.3-.43,3.14-1.28,.83-.87,1.25-2.04,1.25-3.49s-.42-2.6-1.25-3.46c-.83-.87-1.88-1.31-3.14-1.31s-2.34,.44-3.17,1.31c-.83,.85-1.25,2.01-1.25,3.46s.42,2.61,1.25,3.49c.83,.85,1.89,1.28,3.17,1.28Zm27.15-5.15c2.03,.68,3.04,2.05,3.04,4.1,0,1.56-.59,2.76-1.76,3.62s-2.92,1.28-5.25,1.28h-9.18V5.18h8.8c2.15,0,3.84,.39,5.06,1.18,1.22,.77,1.82,1.86,1.82,3.26,0,.85-.22,1.61-.67,2.27-.43,.64-1.05,1.14-1.86,1.5Zm-8.58-1.15h3.78c1.75,0,2.62-.62,2.62-1.86s-.87-1.82-2.62-1.82h-3.78v3.68Zm4.19,6.75c1.83,0,2.75-.63,2.75-1.89,0-.66-.21-1.14-.64-1.44-.43-.32-1.1-.48-2.02-.48h-4.29v3.81h4.19Zm11.14-13.82h4.96v6.72h7.49V5.18h4.99V22.4h-4.99v-6.43h-7.49v6.43h-4.96V5.18Zm39.59,0V22.4h-4.77v-1.98c-1.24,1.49-3.03,2.24-5.38,2.24-1.62,0-3.09-.36-4.42-1.09-1.3-.73-2.33-1.76-3.07-3.1-.75-1.34-1.12-2.9-1.12-4.67s.37-3.33,1.12-4.67c.75-1.34,1.77-2.38,3.07-3.1,1.32-.73,2.79-1.09,4.42-1.09,2.2,0,3.91,.69,5.15,2.08v-1.82h4.99Zm-9.28,13.38c1.26,0,2.3-.43,3.14-1.28,.83-.87,1.25-2.04,1.25-3.49s-.42-2.6-1.25-3.46c-.83-.87-1.88-1.31-3.14-1.31s-2.34,.44-3.17,1.31c-.83,.85-1.25,2.01-1.25,3.46s.42,2.61,1.25,3.49c.83,.85,1.89,1.28,3.17,1.28Zm29.29-13.38V22.4h-4.45v-4.93h-3.68l-3.26,4.93h-5.31l3.94-5.63c-1.19-.47-2.11-1.14-2.75-2.02-.62-.9-.93-1.97-.93-3.23,0-2.03,.72-3.58,2.18-4.67,1.47-1.11,3.49-1.66,6.05-1.66h8.22Zm-8.13,4.06c-1.07,0-1.88,.19-2.43,.58-.53,.38-.8,1-.8,1.86s.26,1.48,.77,1.89c.53,.38,1.33,.58,2.4,.58h3.74v-4.9h-3.68Z"/>
</svg>