<?xml version="1.0" encoding="UTF-8"?>
<svg id="Layer_1" data-name="Layer 1" xmlns="http://www.w3.org/2000/svg" width="142" height="142" viewBox="0 0 142 142">
  <defs>
    <style>
      .cls-1 {
        fill: #e6332a;
      }
    </style>
  </defs>
  <rect class="cls-1" width="142" height="142" rx="25" ry="25"/>
  <path d="M35.42,78.24c-1.45,0-2.77-.31-3.94-.94-1.16-.63-2.07-1.49-2.74-2.58-.65-1.11-.98-2.35-.98-3.72s.33-2.61,.98-3.7c.67-1.11,1.58-1.97,2.74-2.6,1.17-.63,2.49-.94,3.94-.94s2.76,.31,3.92,.94c1.16,.63,2.07,1.49,2.74,2.6,.67,1.09,1,2.33,1,3.7s-.33,2.61-1,3.72c-.67,1.09-1.58,1.95-2.74,2.58-1.16,.63-2.47,.94-3.92,.94Zm0-2.76c.83,0,1.57-.19,2.24-.56,.67-.39,1.19-.92,1.56-1.6,.39-.68,.58-1.45,.58-2.32s-.19-1.64-.58-2.32c-.37-.68-.89-1.21-1.56-1.58-.67-.39-1.41-.58-2.24-.58s-1.57,.19-2.24,.58c-.67,.37-1.19,.9-1.58,1.58-.37,.68-.56,1.45-.56,2.32s.19,1.64,.56,2.32c.39,.68,.91,1.21,1.58,1.6,.67,.37,1.41,.56,2.24,.56Zm20.32-1.56h-1.62v4.08h-3.12v-10.76h3.12v4.18h1.68l2.92-4.18h3.32l-3.76,5.16,4.02,5.6h-3.68l-2.88-4.08Zm18.41-6.68v10.76h-3.12v-8.2h-3.4l-.1,1.9c-.05,1.41-.19,2.59-.4,3.52-.21,.93-.56,1.67-1.04,2.2-.48,.53-1.15,.8-2,.8-.45,0-.99-.08-1.62-.24l.16-2.56c.21,.03,.37,.04,.46,.04,.47,0,.81-.17,1.04-.5,.24-.35,.4-.78,.48-1.3,.08-.53,.14-1.23,.18-2.1l.16-4.32h9.2Zm13.78,0v8.96c0,1.97-.5,3.44-1.5,4.4s-2.45,1.44-4.36,1.44c-1.01,0-1.97-.13-2.88-.38-.89-.25-1.65-.62-2.26-1.1l1.24-2.24c.45,.37,1.01,.67,1.66,.88,.65,.21,1.31,.32,1.98,.32,1.04,0,1.8-.24,2.28-.72,.48-.48,.72-1.21,.72-2.2v-.36c-.4,.4-.87,.71-1.42,.92-.55,.21-1.13,.32-1.76,.32-1.41,0-2.53-.4-3.36-1.2-.83-.81-1.24-2.03-1.24-3.64v-5.4h3.12v4.94c0,1.75,.73,2.62,2.18,2.62,.75,0,1.35-.24,1.8-.72,.45-.49,.68-1.22,.68-2.18v-4.66h3.12Zm9.17,.74c1.03,0,1.93,.21,2.7,.64,.77,.41,1.37,1,1.78,1.76,.43,.76,.64,1.64,.64,2.64s-.25,1.94-.76,2.74c-.49,.79-1.19,1.4-2.08,1.84-.89,.43-1.91,.64-3.04,.64-1.88,0-3.36-.6-4.44-1.8-1.07-1.21-1.6-2.99-1.6-5.32,0-2.16,.47-3.88,1.4-5.16,.95-1.29,2.39-2.14,4.34-2.54l5.12-1.02,.42,2.68-4.52,.9c-1.23,.24-2.14,.64-2.74,1.2-.59,.56-.93,1.35-1.04,2.38,.47-.51,1.03-.89,1.68-1.16,.65-.28,1.37-.42,2.14-.42Zm-.74,7.84c.8,0,1.44-.26,1.92-.78,.49-.52,.74-1.18,.74-1.98s-.25-1.46-.74-1.94c-.48-.48-1.12-.72-1.92-.72s-1.47,.24-1.96,.72c-.49,.48-.74,1.13-.74,1.94s.25,1.48,.76,2c.51,.51,1.15,.76,1.94,.76Zm13.34-.16c.56,0,1.05-.08,1.48-.24,.44-.17,.85-.44,1.22-.8l1.66,1.8c-1.01,1.16-2.49,1.74-4.44,1.74-1.21,0-2.29-.23-3.22-.7-.93-.48-1.65-1.14-2.16-1.98-.51-.84-.76-1.79-.76-2.86s.25-2,.74-2.84c.51-.85,1.19-1.51,2.06-1.98,.88-.48,1.87-.72,2.96-.72,1.03,0,1.96,.22,2.8,.66,.84,.43,1.51,1.05,2,1.88,.51,.81,.76,1.78,.76,2.9l-7.96,1.54c.23,.53,.58,.93,1.06,1.2,.49,.27,1.09,.4,1.8,.4Zm-.46-6.22c-.79,0-1.43,.25-1.92,.76-.49,.51-.75,1.21-.78,2.1l5.24-1.02c-.15-.56-.45-1.01-.9-1.34-.45-.33-1-.5-1.64-.5Z"/>
</svg>