<?xml version="1.0" encoding="UTF-8"?>
<svg id="Layer_1" data-name="Layer 1" xmlns="http://www.w3.org/2000/svg" width="139" height="139" viewBox="0 0 139 139">
  <defs>
    <style>
      .cls-1 {
        fill: #82368c;
      }
    </style>
  </defs>
  <rect class="cls-1" width="139" height="139"/>
  <path d="M37.96,61.76c1.29,0,2.42,.25,3.38,.76s1.71,1.25,2.24,2.24c.53,.99,.8,2.18,.8,3.58v7.66h-3.24v-3.36h-6.4v3.36h-3.2v-7.66c0-1.4,.27-2.59,.8-3.58,.53-.99,1.28-1.73,2.24-2.24,.96-.51,2.09-.76,3.38-.76Zm3.18,8.28v-2c0-1.16-.29-2.03-.86-2.62-.57-.6-1.35-.9-2.34-.9s-1.79,.3-2.36,.9c-.56,.59-.84,1.46-.84,2.62v2h6.4Zm21.14,.54c0,1.67-.56,2.99-1.68,3.96-1.11,.96-2.69,1.51-4.76,1.66v3.68h-2.86v-3.68c-2.07-.15-3.66-.69-4.78-1.64-1.11-.96-1.66-2.29-1.66-3.98s.55-2.96,1.64-3.88c1.11-.92,2.71-1.45,4.8-1.6v-3.94h2.86v3.94c2.07,.15,3.65,.69,4.76,1.62,1.12,.93,1.68,2.22,1.68,3.86Zm-12.72,0c0,.96,.27,1.7,.82,2.22,.55,.52,1.41,.85,2.6,.98v-6.26c-1.19,.12-2.05,.43-2.6,.94-.55,.49-.82,1.2-.82,2.12Zm6.28,3.2c1.19-.13,2.05-.46,2.6-.98,.56-.52,.84-1.26,.84-2.22s-.28-1.63-.84-2.12c-.55-.51-1.41-.82-2.6-.94v6.26Zm19.17-8.54v10.76h-2.98v-1.26c-.4,.47-.89,.82-1.48,1.06-.57,.24-1.19,.36-1.84,.36-1.41,0-2.54-.41-3.38-1.22-.83-.81-1.24-2.02-1.24-3.62v-6.08h3.12v5.62c0,1.73,.73,2.6,2.18,2.6,.76,0,1.37-.24,1.82-.72,.45-.49,.68-1.22,.68-2.18v-5.32h3.12Zm19.39,0v10.76h-16.42v-10.76h3.1v8.2h3.58v-8.2h3.1v8.2h3.54v-8.2h3.1Zm13.85,0v10.76h-2.98v-1.24c-.77,.93-1.89,1.4-3.36,1.4-1.01,0-1.93-.23-2.76-.68-.81-.45-1.45-1.1-1.92-1.94-.47-.84-.7-1.81-.7-2.92s.23-2.08,.7-2.92c.47-.84,1.11-1.49,1.92-1.94,.83-.45,1.75-.68,2.76-.68,1.37,0,2.45,.43,3.22,1.3v-1.14h3.12Zm-5.8,8.36c.79,0,1.44-.27,1.96-.8,.52-.55,.78-1.27,.78-2.18s-.26-1.63-.78-2.16c-.52-.55-1.17-.82-1.96-.82s-1.46,.27-1.98,.82c-.52,.53-.78,1.25-.78,2.16s.26,1.63,.78,2.18c.52,.53,1.18,.8,1.98,.8Z"/>
</svg>