<?xml version="1.0" encoding="UTF-8"?>
<svg id="Layer_1" data-name="Layer 1" xmlns="http://www.w3.org/2000/svg" width="169" height="170" viewBox="0 0 169 170">
  <defs>
    <style>
      .cls-1 {
        fill: #f39200;
      }
    </style>
  </defs>
  <path class="cls-1" d="M84.5,0l7.89,9.94L102.16,1.86l5.64,11.36,11.24-5.87,3.16,12.29,12.22-3.4,.55,12.67,12.65-.78-2.1,12.51,12.54,1.86-4.65,11.8,11.88,4.43-7.01,10.57,10.71,6.81-9.05,8.89,9.05,8.89-10.71,6.81,7.01,10.57-11.88,4.43,4.65,11.8-12.54,1.86,2.1,12.51-12.65-.78-.55,12.67-12.22-3.4-3.16,12.29-11.24-5.87-5.64,11.35-9.77-8.08-7.89,9.94-7.89-9.94-9.77,8.08-5.64-11.35-11.24,5.87-3.16-12.29-12.22,3.4-.55-12.67-12.65,.78,2.1-12.51-12.54-1.86,4.65-11.8-11.88-4.43,7.01-10.57L0,93.89l9.06-8.89L0,76.11l10.71-6.81-7.01-10.57,11.88-4.43-4.65-11.8,12.54-1.86-2.1-12.51,12.65,.78,.55-12.67,12.22,3.4,3.16-12.29,11.24,5.87,5.64-11.36,9.77,8.08L84.5,0Z"/>
  <path d="M53.48,92l-.02-8.38-4.12,6.9h-1.44l-4.12-6.74v8.22h-3.04v-14h2.68l5.24,8.7,5.16-8.7h2.68l.02,14h-3.04Zm17.14-10.76v10.76h-2.98v-1.24c-.77,.93-1.89,1.4-3.36,1.4-1.01,0-1.93-.23-2.76-.68-.81-.45-1.45-1.1-1.92-1.94-.47-.84-.7-1.81-.7-2.92s.23-2.08,.7-2.92c.47-.84,1.11-1.49,1.92-1.94,.83-.45,1.75-.68,2.76-.68,1.37,0,2.45,.43,3.22,1.3v-1.14h3.12Zm-5.8,8.36c.79,0,1.44-.27,1.96-.8,.52-.55,.78-1.27,.78-2.18s-.26-1.63-.78-2.16c-.52-.55-1.17-.82-1.96-.82s-1.46,.27-1.98,.82c-.52,.53-.78,1.25-.78,2.16s.26,1.63,.78,2.18c.52,.53,1.18,.8,1.98,.8Zm17.37-5.8h-5.52v8.2h-3.1v-10.76h8.62v2.56Zm12.06-2.56v10.76h-2.98v-1.24c-.77,.93-1.89,1.4-3.36,1.4-1.01,0-1.93-.23-2.76-.68-.81-.45-1.45-1.1-1.92-1.94-.47-.84-.7-1.81-.7-2.92s.23-2.08,.7-2.92c.47-.84,1.11-1.49,1.92-1.94,.83-.45,1.75-.68,2.76-.68,1.37,0,2.45,.43,3.22,1.3v-1.14h3.12Zm-5.8,8.36c.79,0,1.44-.27,1.96-.8,.52-.55,.78-1.27,.78-2.18s-.26-1.63-.78-2.16c-.52-.55-1.17-.82-1.96-.82s-1.46,.27-1.98,.82c-.52,.53-.78,1.25-.78,2.16s.26,1.63,.78,2.18c.52,.53,1.18,.8,1.98,.8Zm15.63-3.2c.64,.2,1.13,.51,1.48,.92,.36,.41,.54,.91,.54,1.48,0,.68-.23,1.28-.7,1.8-.47,.51-1.11,.9-1.92,1.18-.81,.28-1.73,.42-2.76,.42-.84,0-1.67-.09-2.48-.26-.81-.17-1.57-.43-2.26-.78l.84-2.18c1.13,.55,2.39,.82,3.76,.82,.73,0,1.31-.11,1.72-.32,.43-.23,.64-.54,.64-.94,0-.35-.15-.61-.44-.78-.29-.19-.72-.28-1.28-.28h-2.2v-1.94h1.92c.55,0,.97-.09,1.26-.26,.29-.17,.44-.43,.44-.76s-.19-.61-.56-.8c-.36-.19-.88-.28-1.56-.28-1.04,0-2.17,.25-3.4,.74l-.76-2.16c1.49-.65,2.95-.98,4.36-.98,.97,0,1.84,.12,2.6,.36,.77,.24,1.38,.59,1.82,1.06,.44,.45,.66,.99,.66,1.6,0,.51-.15,.97-.46,1.38-.31,.4-.73,.72-1.26,.96Zm14.91-5.16v10.76h-2.98v-1.26c-.4,.47-.89,.82-1.48,1.06-.57,.24-1.19,.36-1.84,.36-1.41,0-2.54-.41-3.38-1.22-.83-.81-1.24-2.02-1.24-3.62v-6.08h3.12v5.62c0,1.73,.73,2.6,2.18,2.6,.76,0,1.37-.24,1.82-.72,.45-.49,.68-1.22,.68-2.18v-5.32h3.12Zm2.97,0h3.1v4.2h4.68v-4.2h3.12v10.76h-3.12v-4.02h-4.68v4.02h-3.1v-10.76Z"/>
</svg>