<?xml version="1.0" encoding="utf-8"?>
<!-- Generator: Adobe Illustrator 26.4.1, SVG Export Plug-In . SVG Version: 6.00 Build 0)  -->
<svg version="1.1" id="Layer_1" xmlns="http://www.w3.org/2000/svg" xmlns:xlink="http://www.w3.org/1999/xlink" x="0px" y="0px"
	 viewBox="0 0 520.5 483.5" style="enable-background:new 0 0 520.5 483.5;" xml:space="preserve">
<style type="text/css">
	.st0{fill:#F39200;}
	.st1{fill:#FFFFFF;}
</style>
<g>
	<path class="st0" d="M194.8,112.2l24.5,14.8l14.3-24.8l20.9,19.6l19.2-21.3l16.4,23.5l23.2-16.8l11.1,26.4l26.2-11.6l5.4,28.1
		l28-5.9l-0.6,28.6l28.6,0l-6.5,27.9l28,6l-12.2,25.9l26.1,11.7l-17.3,22.8l23.1,16.9l-21.7,18.7l19.1,21.3L425.7,338l14.3,24.8
		l-27.4,8.3l8.8,27.2l-28.5,2.4l3,28.5l-28.4-3.6l-3,28.5l-27-9.4l-8.9,27.2l-24.5-14.8l-14.3,24.8l-20.9-19.6l-19.2,21.3L233.1,460
		l-23.2,16.8l-11.1-26.4L172.7,462l-5.4-28.1l-28,5.9l0.6-28.6l-28.6,0l6.5-27.9l-28-6l12.2-25.9l-26.2-11.7l17.3-22.8L69.9,300
		l21.7-18.7L72.5,260l25.1-13.8l-14.3-24.8l27.4-8.3l-8.8-27.2l28.5-2.4l-3-28.5l28.4,3.6l3-28.5l27,9.4L194.8,112.2L194.8,112.2z"
		/>
	<g>
		<g>
			<path d="M370.6,240.9c2.6,52.1-30.3,103.1-84.4,123.1c-30.1,11.2-61.4,10.8-88.9,1.2l0-0.1l-0.1,0c-20.6-7.2-39.1-19.7-53-36.5
				c0.3,0.8,0.6,1.7,0.9,2.5c7.1,19.2,19.1,35.2,34.1,47.4l20,50.3l-1.1-37.9c29.6,15.5,66.2,18.8,101,5.9s60.4-39.3,72.7-70.4
				l23.9,29.4l-17.7-51.1c3.5-19,2.1-39-5-58.1C372.2,244.6,371.4,242.7,370.6,240.9L370.6,240.9L370.6,240.9z"/>
			<path class="st1" d="M179.5,231.4l13.6,24.3l3.1-27.7l5.4,27.3l11.6-25.4l-3.4,27.7l18.8-20.6l-11.8,25.2l24.3-13.8l-19,20.4
				l27.4-5.6L225.1,277l27.7,3.1l-27.4,5.4l25.4,11.5l-27.7-3.3l20.6,18.8l-25.3-11.7l13.7,24.2L211.7,306l5.6,27.3l-13.6-24.3
				l-3.1,27.7l-5.4-27.3l-11.6,25.4L187,307l-18.8,20.6l11.7-25.3l-24.3,13.8l19-20.4l-27.4,5.6l24.4-13.6l-27.7-3.1l27.4-5.4
				l-25.4-11.5l27.7,3.3l-20.6-18.8l25.3,11.7l-13.7-24.2l20.4,18.9L179.5,231.4L179.5,231.4z"/>
			<path class="st0" d="M201.1,289.6c4-1.5,6.1-6,4.6-10s-6-6.1-10-4.6s-6.1,6-4.6,10S197.1,291.1,201.1,289.6z"/>
			<path class="st1" d="M281.6,193.4l13.6,24.3l3.1-27.7l5.4,27.3l11.6-25.4l-3.3,27.6l18.8-20.6L319,224.3l24.3-13.8l-19,20.4
				l27.4-5.6L327.3,239l27.7,3.1l-27.4,5.4L353,259l-27.7-3.3l20.6,18.8l-25.3-11.7l13.8,24.2L313.9,268l5.6,27.3L305.9,271
				l-3.1,27.7l-5.4-27.3l-11.6,25.4l3.4-27.7l-18.8,20.6l11.7-25.3l-24.3,13.8l19-20.4l-27.4,5.6l24.4-13.6l-27.7-3.1l27.4-5.4
				l-25.4-11.5l27.7,3.3l-20.6-18.8l25.3,11.7l-13.8-24.2l20.4,18.9L281.6,193.4L281.6,193.4z"/>
			<path class="st0" d="M303.3,251.6c4-1.5,6.1-6,4.6-10s-6-6.1-10-4.6c-4,1.5-6.1,6-4.6,10S299.2,253.1,303.3,251.6z"/>
		</g>
	</g>
	<path class="st0" d="M352.2,0l-42.7,143.5l19.6,7.6l95.4,43.7l-25.8-69.6l121.8,61.6L352.2,0z"/>
	<path class="st0" d="M5.6,128.8l126,80.8l-9.9,18.5l-43.7,95.4L52,253.9L0,380.1L5.6,128.8z"/>
</g>
</svg>
