<?xml version="1.0" encoding="utf-8"?>
<!-- Generator: Adobe Illustrator 26.4.1, SVG Export Plug-In . SVG Version: 6.00 Build 0)  -->
<svg version="1.1" id="Layer_1" xmlns="http://www.w3.org/2000/svg" xmlns:xlink="http://www.w3.org/1999/xlink" x="0px" y="0px"
	 viewBox="0 0 148 148" style="enable-background:new 0 0 148 148;" xml:space="preserve">
<style type="text/css">
	.st0{fill:#FFFFFF;}
</style>
<g>
	<circle class="st0" cx="74" cy="74" r="74"/>
	<path d="M41.7,69H53v2.6H45v2.9h3.9c1.7,0,3,0.3,3.9,1.1c0.9,0.7,1.3,1.7,1.3,3.1c0,1.4-0.5,2.5-1.5,3.3c-1,0.8-2.4,1.2-4.2,1.2
		h-6.6V69z M48.2,80.6c0.8,0,1.5-0.2,1.9-0.5c0.4-0.3,0.7-0.8,0.7-1.4c0-1.2-0.8-1.8-2.6-1.8H45v3.8H48.2z M61.3,83.2
		c-1.1,0-2.2-0.2-3.1-0.7c-0.9-0.5-1.6-1.1-2.1-2c-0.5-0.8-0.8-1.8-0.8-2.9s0.2-2,0.8-2.9c0.5-0.8,1.2-1.5,2.1-2
		c0.9-0.5,1.9-0.7,3.1-0.7s2.2,0.2,3,0.7c0.9,0.5,1.6,1.1,2.1,2s0.8,1.8,0.8,2.9s-0.2,2-0.8,2.9c-0.5,0.8-1.2,1.5-2.1,2
		C63.5,82.9,62.4,83.2,61.3,83.2z M61.3,80.6c0.8,0,1.5-0.3,2-0.8c0.5-0.6,0.8-1.3,0.8-2.2s-0.3-1.6-0.8-2.2c-0.5-0.6-1.2-0.8-2-0.8
		s-1.5,0.3-2,0.8c-0.5,0.5-0.8,1.2-0.8,2.2s0.3,1.6,0.8,2.2C59.9,80.3,60.5,80.6,61.3,80.6z M69.4,72.2h3.1v4.2h4.7v-4.2h3.1V83
		h-3.1v-4h-4.7v4h-3.1V72.2z M94,72.2v9c0,2-0.5,3.4-1.5,4.4S90.1,87,88.2,87c-1,0-2-0.1-2.9-0.4c-0.9-0.2-1.7-0.6-2.3-1.1l1.2-2.2
		c0.4,0.4,1,0.7,1.7,0.9s1.3,0.3,2,0.3c1,0,1.8-0.2,2.3-0.7s0.7-1.2,0.7-2.2v-0.4c-0.4,0.4-0.9,0.7-1.4,0.9
		c-0.6,0.2-1.1,0.3-1.8,0.3c-1.4,0-2.5-0.4-3.4-1.2c-0.8-0.8-1.2-2-1.2-3.6v-5.4h3.1v4.9c0,1.8,0.7,2.6,2.2,2.6
		c0.8,0,1.3-0.2,1.8-0.7c0.4-0.5,0.7-1.2,0.7-2.2v-4.7L94,72.2L94,72.2z M102.1,83.2c-1.2,0-2.2-0.2-3.1-0.7c-0.9-0.5-1.6-1.1-2.1-2
		c-0.5-0.8-0.8-1.8-0.8-2.9s0.2-2,0.8-2.9c0.5-0.8,1.2-1.5,2.1-2c0.9-0.5,1.9-0.7,3.1-0.7s2.1,0.2,3,0.7c0.8,0.5,1.5,1.1,1.9,2
		l-2.4,1.3c-0.6-1-1.4-1.5-2.4-1.5c-0.8,0-1.5,0.3-2,0.8c-0.5,0.5-0.8,1.3-0.8,2.2s0.3,1.7,0.8,2.2c0.5,0.5,1.2,0.8,2,0.8
		c1.1,0,1.9-0.5,2.4-1.5l2.4,1.3c-0.4,0.8-1,1.5-1.9,2C104.2,82.9,103.2,83.2,102.1,83.2z"/>
</g>
</svg>
