<?xml version="1.0" encoding="utf-8"?>
<!-- Generator: Adobe Illustrator 26.4.1, SVG Export Plug-In . SVG Version: 6.00 Build 0)  -->
<svg version="1.1" id="Layer_1" xmlns="http://www.w3.org/2000/svg" xmlns:xlink="http://www.w3.org/1999/xlink" x="0px" y="0px"
	 viewBox="0 0 312.1 1220.9" style="enable-background:new 0 0 312.1 1220.9;" xml:space="preserve">
<style type="text/css">
	.st0{fill:#82368C;}
	.st1{fill:#04FF00;}
	.st2{fill:#FFFFFF;}
	.st3{fill:#E6332A;}
</style>
<g>
	<path class="st0" d="M280.1,44.1L90.4,29.5L0,1206.3l189.8,14.6L280.1,44.1z"/>
	<g>
		<g>
			<path class="st1" d="M122.1,106.1c13.4,1,25.1-8.9,26.1-22.1s-9-24.8-22.4-25.8s-25.1,8.9-26.1,22.1
				C98.7,93.5,108.8,105.1,122.1,106.1z"/>
			<path class="st1" d="M179.6,110.5c13.4,1,25.1-8.9,26.1-22.1c1-13.2-9-24.8-22.4-25.8s-25.1,8.9-26.1,22.1
				C156.2,97.9,166.2,109.5,179.6,110.5z"/>
			<path class="st2" d="M180,102.6c9,0.7,16.9-6,17.6-14.9c0.7-8.9-6.1-16.7-15.1-17.4c-9-0.7-16.9,6-17.6,14.9
				C164.2,94.1,171,101.9,180,102.6L180,102.6z"/>
			<path d="M180.8,94.7c4.6,0.3,8.5-3,8.9-7.5c0.4-4.5-3.1-8.4-7.6-8.8s-8.5,3-8.9,7.5C172.8,90.4,176.2,94.4,180.8,94.7z"/>
			<path class="st2" d="M122.7,98.3c9,0.7,16.9-6,17.6-14.9c0.7-8.9-6.1-16.7-15.1-17.4c-9-0.7-16.9,6-17.6,14.9
				C106.9,89.8,113.7,97.6,122.7,98.3z"/>
			<path d="M123.4,90.3c4.6,0.3,8.5-3,8.9-7.5c0.4-4.5-3.1-8.4-7.6-8.8s-8.5,3-8.9,7.5C115.4,86,118.8,90,123.4,90.3L123.4,90.3z"/>
			<path class="st1" d="M237.1,114.9c13.4,1,25.1-8.9,26.1-22.1s-9-24.8-22.4-25.8s-25.1,8.9-26.1,22.1
				C213.6,102.4,223.7,113.9,237.1,114.9z"/>
			<path class="st2" d="M237.7,107.1c9,0.7,16.9-6,17.6-14.9c0.7-8.9-6.1-16.7-15.1-17.4c-9-0.7-16.9,6-17.6,14.9
				C221.9,98.7,228.6,106.5,237.7,107.1z"/>
			<path d="M238.3,99.1c4.6,0.3,8.5-3,8.9-7.5c0.4-4.5-3.1-8.4-7.6-8.8c-4.6-0.3-8.5,3-8.9,7.5C230.3,94.9,233.7,98.8,238.3,99.1
				L238.3,99.1z"/>
			<path class="st3" d="M177,136.4c-26.3-2-47.1-20.8-51.2-44.2c10,18.2,29.4,30.6,51.8,32.4c13.9,1.1,27.4-2.1,39.1-9.1
				c7.2-4.3,13.3-10,18.1-16.5C227.8,122.2,203.9,138.4,177,136.4L177,136.4z"/>
		</g>
	</g>
	<g>
		<g>
			<path class="st1" d="M114.5,205.8c13.4,1,25.1-9.1,26.1-22.5c1-13.5-9-25.2-22.4-26.2c-13.4-1-25.1,9.1-26.1,22.5
				S101.1,204.8,114.5,205.8L114.5,205.8z"/>
			<path class="st1" d="M171.9,210.2c13.4,1,25.1-9.1,26.1-22.5s-9-25.2-22.4-26.2s-25.1,9.1-26.1,22.5
				C148.5,197.4,158.6,209.2,171.9,210.2z"/>
			<path class="st2" d="M172.4,202.1c9,0.7,16.9-6.1,17.6-15.2s-6.1-17-15.1-17.7s-16.9,6.1-17.6,15.2S163.3,201.4,172.4,202.1z"/>
			<path d="M173.2,194.1c4.6,0.4,8.5-3.1,8.9-7.7c0.4-4.6-3.1-8.6-7.6-8.9c-4.6-0.4-8.5,3.1-8.9,7.7S168.6,193.8,173.2,194.1z"/>
			<path class="st2" d="M115.1,197.9c9,0.7,16.9-6.1,17.6-15.2s-6.1-17-15.1-17.7s-16.9,6.1-17.6,15.2
				C99.3,189.2,106.1,197.2,115.1,197.9z"/>
			<path d="M115.7,189.7c4.6,0.4,8.6-3.1,8.9-7.7s-3.1-8.6-7.6-8.9c-4.6-0.4-8.5,3.1-8.9,7.7C107.8,185.4,111.2,189.4,115.7,189.7z"
				/>
			<path class="st1" d="M229.4,214.6c13.4,1,25.1-9.1,26.1-22.5s-9-25.2-22.4-26.2s-25.1,9.1-26.1,22.5S216,213.6,229.4,214.6
				L229.4,214.6z"/>
			<path class="st2" d="M230,206.7c9,0.7,16.9-6.1,17.6-15.2s-6.1-17-15.1-17.7s-16.9,6.1-17.6,15.2S221,206,230,206.7z"/>
			<path d="M230.6,198.6c4.6,0.4,8.5-3.1,8.9-7.7s-3.1-8.6-7.6-8.9s-8.6,3.1-8.9,7.7C222.7,194.2,226.1,198.2,230.6,198.6z"/>
			<path class="st3" d="M169.3,236.5c-26.3-2-47-21.1-51.1-44.9c10,18.5,29.4,31.1,51.7,32.9c13.9,1.1,27.5-2.1,39.1-9.3
				c7.2-4.4,13.4-10.2,18.1-16.9C220.1,222.1,196.2,238.6,169.3,236.5"/>
		</g>
	</g>
	<g>
		<g>
			<path class="st1" d="M106.8,306c13.4,1,25.1-9,26.1-22.5c1-13.5-9-25.2-22.4-26.2s-25.1,9-26.1,22.5
				C83.4,293.2,93.4,304.9,106.8,306z"/>
			<path class="st1" d="M164.2,310.4c13.4,1,25.1-9,26.1-22.5s-9-25.2-22.4-26.2s-25.1,9-26.1,22.5
				C140.8,297.6,150.9,309.3,164.2,310.4z"/>
			<path class="st2" d="M164.7,302.3c9,0.7,16.9-6.1,17.6-15.2c0.7-9.1-6.1-17-15.1-17.7s-16.9,6.1-17.6,15.2
				C148.9,293.7,155.6,301.6,164.7,302.3z"/>
			<path d="M165.5,294.3c4.6,0.4,8.5-3.1,8.9-7.7c0.4-4.6-3.1-8.6-7.6-8.9s-8.5,3.1-8.9,7.7C157.5,289.9,160.9,293.9,165.5,294.3z"
				/>
			<path class="st2" d="M107.4,298c9,0.7,16.9-6.1,17.6-15.2c0.7-9.1-6.1-17-15.1-17.7s-16.9,6.1-17.6,15.2
				C91.6,289.4,98.4,297.3,107.4,298z"/>
			<path d="M108,289.9c4.6,0.4,8.6-3.1,8.9-7.7c0.3-4.6-3.1-8.6-7.6-8.9c-4.6-0.4-8.5,3.1-8.9,7.7
				C100.1,285.5,103.5,289.5,108,289.9L108,289.9z"/>
			<path class="st1" d="M221.7,314.8c13.4,1,25.1-9,26.1-22.5s-9-25.2-22.4-26.2s-25.1,9-26.1,22.5S208.3,313.8,221.7,314.8z"/>
			<path class="st2" d="M222.3,306.9c9,0.7,16.9-6.1,17.6-15.2c0.7-9.1-6.1-17-15.1-17.7s-16.9,6.1-17.6,15.2
				C206.5,298.2,213.3,306.2,222.3,306.9z"/>
			<path d="M222.9,298.7c4.6,0.4,8.5-3.1,8.9-7.7c0.4-4.6-3.1-8.6-7.6-8.9c-4.6-0.4-8.6,3.1-8.9,7.7
				C215,294.4,218.4,298.4,222.9,298.7z"/>
			<path class="st3" d="M161.6,336.7c-26.3-2-47-21.1-51.1-44.9c10,18.5,29.4,31.1,51.7,32.9c13.9,1.1,27.5-2.1,39.1-9.3
				c7.2-4.4,13.4-10.2,18.1-16.9C212.4,322.2,188.5,338.8,161.6,336.7"/>
		</g>
	</g>
	<path class="st0" d="M50.8,79L95,59.4l-3.5,45.7C91.5,105.1,50.8,79,50.8,79z"/>
	<path class="st0" d="M43.2,178.4l44.3-20.1l-3.6,46.8L43.2,178.4L43.2,178.4L43.2,178.4z"/>
	<path class="st0" d="M35.6,277.3l44.2-19l-3.4,44.5L35.6,277.3L35.6,277.3z"/>
	<path class="st0" d="M312.1,94.4l-40.8-25.5l-3.4,44.5L312.1,94.4L312.1,94.4L312.1,94.4z"/>
	<path class="st0" d="M304.4,193.9l-40.8-26.1l-3.5,45.6L304.4,193.9L304.4,193.9z"/>
	<path class="st0" d="M137.5,0l-26,41.5l45.4,3.5L137.5,0z"/>
	<path class="st0" d="M237,7.6l-26,41.5l45.4,3.5L237,7.6z"/>
	<path class="st0" d="M296.8,293.4l-40.7-26.6l-3.6,46.8L296.8,293.4L296.8,293.4L296.8,293.4z"/>
</g>
</svg>
