<?xml version="1.0" encoding="UTF-8"?>
<svg id="Layer_1" data-name="Layer 1" xmlns="http://www.w3.org/2000/svg" width="224.74mm" height="534.36mm" viewBox="0 0 637.07 1514.71">
  <defs>
    <style>
      .cls-1 {
        fill: #e6332a;
      }

      .cls-2 {
        fill: #fff;
      }
    </style>
  </defs>
  <path class="cls-1" d="M374.36,146.85c17.02-59.38,78.96-93.74,138.35-76.72,59.38,17.02,93.73,78.97,76.71,138.35L215.07,1514.71,0,1453.07,374.36,146.85Z"/>
  <path class="cls-1" d="M445.12,97.41s-24.04-1.14-28.93-49.28L411.31,0s26.55,66.08,34.24,70.42c7.69,4.34-.43,26.98-.43,26.98Z"/>
  <path class="cls-1" d="M556.79,129.41s21,11.77,50.64-26.47l29.63-38.24s-57.52,41.99-66.34,41.6c-8.82-.39-13.93,23.11-13.93,23.11Z"/>
  <path class="cls-2" d="M468.12,227.98c32.7,9.37,66.8-9.54,76.17-42.24,9.37-32.7-9.54-66.8-42.24-76.17-32.7-9.37-66.8,9.54-76.18,42.24-9.37,32.7,9.54,66.8,42.24,76.18Z"/>
  <path d="M479.31,188.92c11.13,3.19,22.73-3.24,25.92-14.37,3.19-11.13-3.24-22.73-14.37-25.92-11.13-3.19-22.73,3.24-25.92,14.37-3.19,11.13,3.24,22.73,14.37,25.92Z"/>
  <path class="cls-2" d="M504.52,272.42c-11.2,17-33.32,25.39-54.88,19.22-12-3.44-21.75-10.8-28.12-20.16v-.03s-.04-.01-.04-.01c-4.79-7.05-7.68-15.24-8.15-23.74l-.29,1c-2.2,7.67-2.14,15.47-.25,22.77l-5.36,20.42,8.4-12.17c5.66,11.72,16.4,21.2,30.28,25.18,13.89,3.98,28.01,1.61,39.02-5.32l.68,14.77,6.27-20.16c5.48-5.19,9.66-11.78,11.85-19.45,.22-.77,.44-1.53,.59-2.31h-.02Z"/>
</svg>