<?xml version="1.0" encoding="utf-8"?>
<!-- Generator: Adobe Illustrator 26.4.1, SVG Export Plug-In . SVG Version: 6.00 Build 0)  -->
<svg version="1.1" id="Layer_1" xmlns="http://www.w3.org/2000/svg" xmlns:xlink="http://www.w3.org/1999/xlink" x="0px" y="0px"
	 viewBox="0 0 169 170" style="enable-background:new 0 0 169 170;" xml:space="preserve">
<style type="text/css">
	.st0{fill:#FFFFFF;}
</style>
<g>
	<path class="st0" d="M84.5,0l7.9,9.9l9.8-8.1l5.6,11.4L119,7.3l3.2,12.3l12.2-3.4l0.6,12.7l12.6-0.8l-2.1,12.5l12.5,1.9l-4.6,11.8
		l11.9,4.4l-7,10.6l10.7,6.8l-9.1,8.9l9.1,8.9l-10.7,6.8l7,10.6l-11.9,4.4l4.6,11.8l-12.5,1.9l2.1,12.5l-12.6-0.8l-0.6,12.7
		l-12.2-3.4l-3.2,12.3l-11.2-5.9l-5.6,11.4l-9.8-8.1l-7.9,9.9l-7.9-9.9l-9.8,8.1l-5.6-11.4L50,162.6l-3.2-12.3l-12.2,3.4L34,141.1
		l-12.6,0.8l2.1-12.5l-12.5-1.9l4.7-11.8l-11.9-4.4l7-10.6L0,93.9L9.1,85L0,76.1l10.7-6.8l-7-10.6l11.9-4.4l-4.6-11.8l12.5-1.9
		l-2.1-12.5L34,28.9l0.5-12.7l12.2,3.4L50,7.4l11.2,5.9l5.6-11.4l9.8,8.1L84.5,0z"/>
	<path d="M50.5,95l0-8.4l-4.1,6.9h-1.4l-4.1-6.7V95h-3V81h2.7l5.2,8.7l5.2-8.7h2.7l0,14C53.5,95,50.5,95,50.5,95z M67.6,84.2V95h-3
		v-1.2c-0.8,0.9-1.9,1.4-3.4,1.4c-1,0-1.9-0.2-2.8-0.7c-0.8-0.4-1.5-1.1-1.9-1.9c-0.5-0.8-0.7-1.8-0.7-2.9s0.2-2.1,0.7-2.9
		s1.1-1.5,1.9-1.9c0.8-0.4,1.8-0.7,2.8-0.7c1.4,0,2.5,0.4,3.2,1.3v-1.1C64.5,84.2,67.6,84.2,67.6,84.2z M61.8,92.6
		c0.8,0,1.4-0.3,2-0.8c0.5-0.6,0.8-1.3,0.8-2.2s-0.3-1.6-0.8-2.2c-0.5-0.6-1.2-0.8-2-0.8s-1.5,0.3-2,0.8c-0.5,0.5-0.8,1.2-0.8,2.2
		s0.3,1.6,0.8,2.2C60.4,92.3,61,92.6,61.8,92.6z M79.2,86.8h-5.5V95h-3.1V84.2h8.6C79.2,84.2,79.2,86.8,79.2,86.8z M91.2,84.2V95h-3
		v-1.2c-0.8,0.9-1.9,1.4-3.4,1.4c-1,0-1.9-0.2-2.8-0.7c-0.8-0.4-1.4-1.1-1.9-1.9c-0.5-0.8-0.7-1.8-0.7-2.9s0.2-2.1,0.7-2.9
		c0.5-0.8,1.1-1.5,1.9-1.9c0.8-0.4,1.8-0.7,2.8-0.7c1.4,0,2.4,0.4,3.2,1.3v-1.1C88.1,84.2,91.2,84.2,91.2,84.2z M85.4,92.6
		c0.8,0,1.4-0.3,2-0.8c0.5-0.6,0.8-1.3,0.8-2.2s-0.3-1.6-0.8-2.2c-0.5-0.6-1.2-0.8-2-0.8s-1.5,0.3-2,0.8c-0.5,0.5-0.8,1.2-0.8,2.2
		s0.3,1.6,0.8,2.2C84,92.3,84.6,92.6,85.4,92.6z M101.1,89.4c0.6,0.2,1.1,0.5,1.5,0.9c0.4,0.4,0.5,0.9,0.5,1.5
		c0,0.7-0.2,1.3-0.7,1.8c-0.5,0.5-1.1,0.9-1.9,1.2s-1.7,0.4-2.8,0.4c-0.8,0-1.7-0.1-2.5-0.3c-0.8-0.2-1.6-0.4-2.3-0.8l0.8-2.2
		c1.1,0.6,2.4,0.8,3.8,0.8c0.7,0,1.3-0.1,1.7-0.3c0.4-0.2,0.6-0.5,0.6-0.9c0-0.3-0.2-0.6-0.4-0.8c-0.3-0.2-0.7-0.3-1.3-0.3H96v-1.9
		h1.9c0.6,0,1-0.1,1.3-0.3c0.3-0.2,0.4-0.4,0.4-0.8s-0.2-0.6-0.6-0.8c-0.4-0.2-0.9-0.3-1.6-0.3c-1,0-2.2,0.2-3.4,0.7L93.4,85
		c1.5-0.7,2.9-1,4.4-1c1,0,1.8,0.1,2.6,0.4c0.8,0.2,1.4,0.6,1.8,1.1c0.4,0.4,0.7,1,0.7,1.6c0,0.5-0.2,1-0.5,1.4
		C102,88.8,101.6,89.2,101.1,89.4L101.1,89.4z M116,84.2V95h-3v-1.3c-0.4,0.5-0.9,0.8-1.5,1.1c-0.6,0.2-1.2,0.4-1.8,0.4
		c-1.4,0-2.5-0.4-3.4-1.2c-0.8-0.8-1.2-2-1.2-3.6v-6.1h3.1v5.6c0,1.7,0.7,2.6,2.2,2.6c0.8,0,1.4-0.2,1.8-0.7
		c0.4-0.5,0.7-1.2,0.7-2.2v-5.3C112.9,84.2,116,84.2,116,84.2z M119,84.2h3.1v4.2h4.7v-4.2h3.1V95h-3.1v-4h-4.7v4H119
		C119,95,119,84.2,119,84.2z"/>
</g>
</svg>
