<?xml version="1.0" encoding="utf-8"?>
<!-- Generator: Adobe Illustrator 26.4.1, SVG Export Plug-In . SVG Version: 6.00 Build 0)  -->
<svg version="1.1" id="Layer_1" xmlns="http://www.w3.org/2000/svg" xmlns:xlink="http://www.w3.org/1999/xlink" x="0px" y="0px"
	 viewBox="0 0 126 126" style="enable-background:new 0 0 126 126;" xml:space="preserve">
<style type="text/css">
	.st0{fill:#FFFFFF;}
</style>
<g>
	<rect class="st0" width="126" height="126"/>
	<path d="M31,56.8c1.3,0,2.4,0.2,3.4,0.8s1.7,1.2,2.2,2.2c0.5,1,0.8,2.2,0.8,3.6V71h-3.2v-3.4h-6.4V71h-3.2v-7.7
		c0-1.4,0.3-2.6,0.8-3.6c0.5-1,1.3-1.7,2.2-2.2C28.5,57,29.7,56.8,31,56.8z M34.1,65v-2c0-1.2-0.3-2-0.9-2.6
		c-0.6-0.6-1.4-0.9-2.3-0.9s-1.8,0.3-2.4,0.9C28,61,27.7,61.9,27.7,63v2H34.1z M55.3,65.6c0,1.7-0.6,3-1.7,4c-1.1,1-2.7,1.5-4.8,1.7
		v3.7H46v-3.7c-2.1-0.2-3.7-0.7-4.8-1.6c-1.1-1-1.7-2.3-1.7-4s0.5-3,1.6-3.9c1.1-0.9,2.7-1.5,4.8-1.6v-3.9h2.9v3.9
		c2.1,0.2,3.7,0.7,4.8,1.6C54.7,62.7,55.3,63.9,55.3,65.6z M42.6,65.6c0,1,0.3,1.7,0.8,2.2c0.5,0.5,1.4,0.8,2.6,1v-6.3
		c-1.2,0.1-2,0.4-2.6,0.9C42.8,64,42.6,64.7,42.6,65.6z M48.8,68.8c1.2-0.1,2-0.5,2.6-1c0.6-0.5,0.8-1.3,0.8-2.2s-0.3-1.6-0.8-2.1
		c-0.5-0.5-1.4-0.8-2.6-0.9V68.8z M68,60.2V71h-3v-1.3c-0.4,0.5-0.9,0.8-1.5,1.1c-0.6,0.2-1.2,0.4-1.8,0.4c-1.4,0-2.5-0.4-3.4-1.2
		c-0.8-0.8-1.2-2-1.2-3.6v-6.1h3.1v5.6c0,1.7,0.7,2.6,2.2,2.6c0.8,0,1.4-0.2,1.8-0.7c0.4-0.5,0.7-1.2,0.7-2.2v-5.3
		C64.9,60.2,68,60.2,68,60.2z M87.4,60.2V71H71V60.2h3.1v8.2h3.6v-8.2h3.1v8.2h3.5v-8.2C84.3,60.2,87.4,60.2,87.4,60.2z M101.2,60.2
		V71h-3v-1.2c-0.8,0.9-1.9,1.4-3.4,1.4c-1,0-1.9-0.2-2.8-0.7c-0.8-0.4-1.4-1.1-1.9-1.9c-0.5-0.8-0.7-1.8-0.7-2.9s0.2-2.1,0.7-2.9
		c0.5-0.8,1.1-1.5,1.9-1.9c0.8-0.5,1.8-0.7,2.8-0.7c1.4,0,2.4,0.4,3.2,1.3v-1.1C98.1,60.2,101.2,60.2,101.2,60.2z M95.4,68.6
		c0.8,0,1.4-0.3,2-0.8c0.5-0.6,0.8-1.3,0.8-2.2s-0.3-1.6-0.8-2.2c-0.5-0.5-1.2-0.8-2-0.8s-1.5,0.3-2,0.8c-0.5,0.5-0.8,1.2-0.8,2.2
		s0.3,1.6,0.8,2.2C94,68.3,94.6,68.6,95.4,68.6z"/>
</g>
</svg>
